<?xml version="1.0" encoding="UTF-8" standalone="no"?>
<svg
   id="Livello_1"
   data-name="Livello 1"
   viewBox="0 0 512 384"
   version="1.1"
   width="512"
   height="384"
   xmlns="http://www.w3.org/2000/svg"
   xmlns:svg="http://www.w3.org/2000/svg"
   xmlns:rdf="http://www.w3.org/1999/02/22-rdf-syntax-ns#"
   xmlns:cc="http://creativecommons.org/ns#"
   xmlns:dc="http://purl.org/dc/elements/1.1/">
  <defs
     id="defs331">
    <style
       id="style329">.cls-1{fill:#addbec;}.cls-11,.cls-12,.cls-15,.cls-17,.cls-2,.cls-3,.cls-4,.cls-6{fill:none;}.cls-2,.cls-3,.cls-4{stroke:#fff;}.cls-11,.cls-12,.cls-13,.cls-15,.cls-17,.cls-2,.cls-3,.cls-4,.cls-6{stroke-miterlimit:10;}.cls-2{stroke-opacity:0.5;}.cls-2,.cls-3{stroke-width:3.06px;}.cls-4{stroke-width:1.74px;}.cls-5{fill:#4d4d4d;}.cls-5,.cls-7{fill-opacity:0.9;}.cls-6{stroke:#de2d27;stroke-width:3px;stroke-dasharray:9.18 6.12;}.cls-7{fill:#34a4cd;}.cls-8,.cls-9{fill:#de2d27;}.cls-8{fill-opacity:0.5;}.cls-9{fill-opacity:0.8;}.cls-10{opacity:0.8;}.cls-11,.cls-12,.cls-13,.cls-15,.cls-17{stroke:#1d1d1b;}.cls-11,.cls-15{stroke-width:3.27px;}.cls-12{stroke-width:3.3px;}.cls-13,.cls-17{stroke-width:2px;}.cls-14{opacity:0.75;}.cls-15{stroke-opacity:0.75;}.cls-16{fill:#fff;}</style>
  </defs>
  <title
     id="title333">05Tavola disegno 1</title>
  <g
     id="g1026"
     transform="matrix(0.41585317,0,0,0.41585317,-147.95696,-38.744445)">
    <g
       id="LENTE_01"
       data-name="LENTE 01">
      <path
         class="cls-1"
         d="m 637,157.82 h -56.62 c -23,0 -45.1,93.36 -45.1,280.36 0,222.4 31,279.68 43.28,279.68 9.8,0 58.45,0.69 58.45,0.69 0,0 45.1,-3.73 45.1,-280.37 0,0 -2.81,-278.79 -45.11,-280.36 z"
         id="path335" />
      <ellipse
         class="cls-2"
         cx="578.56"
         cy="437.48999"
         rx="45.099998"
         ry="280.37"
         id="ellipse337" />
      <ellipse
         class="cls-3"
         cx="636.71997"
         cy="437.48999"
         rx="45.099998"
         ry="280.37"
         id="ellipse339" />
    </g>
    <g
       id="Livello_9"
       data-name="Livello 9">
      <ellipse
         class="cls-4"
         cx="831.45001"
         cy="697.94"
         rx="9.1099997"
         ry="38.93"
         id="ellipse342" />
      <path
         class="cls-5"
         d="m 1072.3,659 h -240 c 0,0 -9.11,0.06 -9.11,38.93 0,38.87 9.11,38.94 9.11,38.94 h 240.85 c 0,0 8.24,-0.52 8.24,-38.94 0.02,0.01 -0.55,-38.7 -9.09,-38.93 z"
         id="path344" />
      <ellipse
         class="cls-3"
         cx="1072.72"
         cy="697.94"
         rx="9.1099997"
         ry="38.93"
         id="ellipse346" />
      <line
         class="cls-4"
         x1="831.45001"
         y1="659.01001"
         x2="1072.3"
         y2="659.01001"
         id="line348" />
      <line
         class="cls-4"
         x1="831.45001"
         y1="736.88"
         x2="1073.17"
         y2="736.88"
         id="line350" />
    </g>
    <g
       id="Livello_31"
       data-name="Livello 31">
      <g
         id="Livello_10"
         data-name="Livello 10">
        <line
           class="cls-6"
           x1="396.38"
           y1="442.34"
           x2="1548.52"
           y2="442.34"
           id="line353" />
      </g>
    </g>
    <g
       id="LENTE_2"
       data-name="LENTE 2">
      <path
         class="cls-1"
         d="m 1333.75,157.82 h -56.63 c -23,0 -45.1,93.36 -45.1,280.36 0,222.4 31,279.68 43.28,279.68 9.81,0 58.45,0.69 58.45,0.69 0,0 45.1,-3.73 45.1,-280.37 0,0 -2.85,-278.79 -45.1,-280.36 z"
         id="path357" />
      <ellipse
         class="cls-3"
         cx="1275.3"
         cy="437.48999"
         rx="45.099998"
         ry="280.37"
         id="ellipse359" />
      <ellipse
         class="cls-2"
         cx="1333.46"
         cy="437.48999"
         rx="45.099998"
         ry="280.37"
         id="ellipse361" />
    </g>
    <g
       id="ALM">
      <ellipse
         class="cls-3"
         cx="832.26001"
         cy="440.38"
         rx="16.040001"
         ry="99.709999"
         id="ellipse364" />
      <path
         class="cls-7"
         d="M 1075.87,350.57 H 833.79 c 0,0 -16,0.14 -16,91.26 0,91.12 16,91.26 16,91.26 h 243.61 c 0,0 14.51,-1.21 14.51,-91.26 0,0 -1,-90.75 -16.04,-91.26 z"
         id="path366" />
      <ellipse
         class="cls-3"
         cx="1076.61"
         cy="440.38"
         rx="16.040001"
         ry="99.709999"
         id="ellipse368" />
    </g>
    <g
       id="Livello_14"
       data-name="Livello 14">
      <path
         class="cls-8"
         d="m 1548.39,460.73 h -240.16 c 0,0 3.11,-10 2.88,-18.22 -0.22,-7.6 -2.88,-16.66 -2.88,-16.66 h 240.16 z"
         id="path371" />
    </g>
    <g
       id="Livello_11"
       data-name="Livello 11">
      <path
         class="cls-8"
         d="m 1075.31,431.84 -3.69,0.09 H 817.75 c 0,7.59 0,15.2 0.5,22.78 h 257.48 c -0.1,-7.61 -0.34,-15.24 -0.42,-22.87 z"
         id="path374" />
      <path
         class="cls-9"
         d="m 1075.9,454.81 232.33,6.11 a 60.23,60.23 0 0 0 2.88,-18.41 c 0,-7.77 -3.49,-16.66 -3.49,-16.66 l -232.11,5.92 c 0.07,7.68 0.29,15.36 0.39,23.04 z"
         id="path376" />
      <path
         class="cls-9"
         d="m 817.23,431.93 h -1.15 l -202.3,-7.55 a 62.44,62.44 0 0 0 -2.73,17.95 58,58 0 0 0 3,18 l 203.58,-5.63 h 0.12 c -0.48,-7.57 -0.52,-15.18 -0.52,-22.77 z"
         id="path378" />
    </g>
    <g
       id="Livello_22"
       data-name="Livello 22"
       class="cls-10">
      <polyline
         class="cls-11"
         points="888.64 578.25 902.17 557.37 915.14 578.85"
         id="polyline381" />
      <line
         class="cls-12"
         x1="902.20001"
         y1="575.65002"
         x2="902.09003"
         y2="559.09003"
         id="line383" />
      <path
         class="cls-13"
         d="m 902.85,622.68 c -2.72,-2.24 -3.58,-3.52 -3.85,-5.72 a 5.43,5.43 0 0 1 0,-1.61 c 0.29,-2.05 1.15,-3.32 3.65,-5.41 3.08,-2.59 4.07,-4.27 4.26,-7.23 a 10.94,10.94 0 0 0 0,-1.81 c -0.28,-2.55 -1.28,-4.14 -4.18,-6.61 -0.55,-0.47 -1.27,-1.13 -1.62,-1.48 a 6.61,6.61 0 0 1 -2.1,-5.54 6.78,6.78 0 0 1 1.16,-3 c 2.44,-4.39 2.64,-6.18 2.74,-9.61 0,-0.39 -1.26,0.19 -1.31,-0.2 0,6.06 -3.05,9.09 -3.61,11.36 a 10,10 0 0 0 -0.16,3.36 c 0.32,2.59 1.27,4.09 4.18,6.6 2.2,1.9 3,2.85 3.43,4.24 a 5.25,5.25 0 0 1 0.26,2.12 5,5 0 0 1 -0.25,2.07 9.14,9.14 0 0 1 -3.08,4 l -1.21,1 a 8.93,8.93 0 0 0 -3.35,8.08 c 0.29,2.68 1.33,4.37 4.2,6.8 a 11,11 0 0 1 3.47,4.31 c 0.53,1.21 0.63,2.93 -0.93,5.45 -2,3.18 -2.87,5.36 -2.92,10.58 0,0.11 1.17,0 1.17,0 a 17.64,17.64 0 0 1 2.32,-8.62 c 0.81,-1.39 1.59,-2.3 1.81,-4.34 0.36,-3.65 -0.84,-6.12 -4.08,-8.79 z"
         id="path385" />
    </g>
    <g
       id="Livello_23"
       data-name="Livello 23"
       class="cls-10">
      <polyline
         class="cls-11"
         points="938.68 578.24 952.2 557.36 965.17 578.84"
         id="polyline388" />
      <line
         class="cls-12"
         x1="952.22998"
         y1="575.64001"
         x2="952.12"
         y2="559.08002"
         id="line390" />
      <path
         class="cls-13"
         d="m 952.88,622.67 c -2.72,-2.24 -3.58,-3.52 -3.85,-5.72 a 5.43,5.43 0 0 1 0,-1.61 c 0.3,-2.05 1.15,-3.32 3.65,-5.41 3.08,-2.59 4.08,-4.27 4.27,-7.23 a 12.16,12.16 0 0 0 -0.05,-1.81 c -0.28,-2.55 -1.28,-4.14 -4.18,-6.61 -0.54,-0.47 -1.26,-1.13 -1.61,-1.48 a 6.63,6.63 0 0 1 -2.11,-5.54 7.07,7.07 0 0 1 1.16,-3 c 2.44,-4.39 2.64,-6.18 2.74,-9.61 0,-0.39 -1.25,0.19 -1.3,-0.2 0,6.06 -3.06,9.09 -3.62,11.36 a 10.25,10.25 0 0 0 -0.16,3.36 c 0.32,2.59 1.27,4.09 4.19,6.6 2.2,1.9 3,2.85 3.43,4.24 a 5.24,5.24 0 0 1 0.25,2.12 4.85,4.85 0 0 1 -0.25,2.07 9.17,9.17 0 0 1 -3.07,4 l -1.22,1 a 8.89,8.89 0 0 0 -3.34,8.08 c 0.28,2.68 1.33,4.38 4.2,6.8 a 11.21,11.21 0 0 1 3.47,4.31 c 0.53,1.21 0.62,2.93 -0.94,5.45 -2,3.18 -2.86,5.36 -2.92,10.59 0,0.1 1.18,0 1.18,0 a 17.37,17.37 0 0 1 2.32,-8.62 c 0.8,-1.39 1.59,-2.3 1.8,-4.34 0.4,-3.66 -0.79,-6.13 -4.04,-8.8 z"
         id="path392" />
    </g>
    <g
       id="Livello_24"
       data-name="Livello 24"
       class="cls-10">
      <polyline
         class="cls-11"
         points="988.71 578.24 1002.24 557.36 1015.2 578.84"
         id="polyline395" />
      <line
         class="cls-12"
         x1="1002.26"
         y1="575.64001"
         x2="1002.16"
         y2="559.08002"
         id="line397" />
      <path
         class="cls-13"
         d="m 1002.91,622.67 c -2.71,-2.24 -3.57,-3.52 -3.84,-5.72 a 4.83,4.83 0 0 1 0,-1.61 c 0.3,-2.05 1.15,-3.32 3.65,-5.41 3.09,-2.59 4.08,-4.27 4.27,-7.23 a 13.67,13.67 0 0 0 0,-1.81 c -0.28,-2.55 -1.29,-4.14 -4.18,-6.61 -0.55,-0.47 -1.27,-1.13 -1.62,-1.48 a 6.61,6.61 0 0 1 -2.1,-5.54 6.78,6.78 0 0 1 1.16,-3 c 2.43,-4.39 2.63,-6.18 2.73,-9.61 0,-0.39 -1.25,0.19 -1.3,-0.2 0,6.06 -3.06,9.09 -3.61,11.36 a 10,10 0 0 0 -0.16,3.36 c 0.32,2.59 1.27,4.09 4.18,6.6 2.2,1.9 3,2.85 3.43,4.24 a 5.25,5.25 0 0 1 0.26,2.12 4.7,4.7 0 0 1 -0.26,2.07 9,9 0 0 1 -3.07,4 l -1.22,1 a 8.93,8.93 0 0 0 -3.34,8.08 c 0.28,2.68 1.33,4.38 4.2,6.8 a 11.14,11.14 0 0 1 3.47,4.31 c 0.53,1.21 0.62,2.93 -0.93,5.45 -2,3.18 -2.87,5.36 -2.93,10.59 0,0.1 1.18,0 1.18,0 a 17.64,17.64 0 0 1 2.32,-8.62 c 0.81,-1.39 1.59,-2.3 1.81,-4.34 0.35,-3.66 -0.85,-6.13 -4.1,-8.8 z"
         id="path399" />
    </g>
    <g
       id="Livello_34"
       data-name="Livello 34"
       class="cls-14">
      <polyline
         class="cls-15"
         points="591.62 868.69 605.14 847.82 618.11 869.29"
         id="polyline402" />
      <polyline
         class="cls-15"
         points="1294.98 868.69 1308.51 847.82 1321.47 869.29"
         id="polyline404" />
      <polyline
         class="cls-15"
         points="605.14 847.82 604.87 905.07 1308.23 905.07 1308.51 847.82"
         id="polyline406" />
    </g>
    <g
       id="EXTRAS">
      <rect
         class="cls-16"
         x="830.25"
         y="858.54999"
         width="251.58"
         height="95.599998"
         id="rect409" />
      <line
         class="cls-17"
         x1="691.85999"
         y1="516.57001"
         x2="722.41998"
         y2="450.76001"
         id="line411" />
    </g>
    <g
       id="TESTI_TRACCIATI"
       data-name="TESTI TRACCIATI">
      <path
         d="m 414.83,479.76 a 15.73,15.73 0 0 1 -1.27,6.56 9.47,9.47 0 0 1 -3.56,4.28 10.52,10.52 0 0 1 -10.78,0 9.87,9.87 0 0 1 -3.63,-4.23 15,15 0 0 1 -1.32,-6.37 v -1.85 a 15.56,15.56 0 0 1 1.28,-6.52 9.82,9.82 0 0 1 3.63,-4.33 9.62,9.62 0 0 1 5.37,-1.51 9.87,9.87 0 0 1 5.42,1.49 9.49,9.49 0 0 1 3.61,4.31 15.73,15.73 0 0 1 1.27,6.56 z m -3.36,-1.65 q 0,-4.56 -1.82,-7 a 6.5,6.5 0 0 0 -9.15,-1 6.89,6.89 0 0 0 -1,1 11.34,11.34 0 0 0 -1.89,6.76 v 1.88 a 11.41,11.41 0 0 0 1.86,6.93 6.5,6.5 0 0 0 9.12,1.16 6.34,6.34 0 0 0 1.05,-1 c 1.19,-1.58 1.81,-3.86 1.84,-6.83 z"
         id="path414" />
      <path
         d="m 436.35,482.43 a 11.33,11.33 0 0 1 -2,7 6.36,6.36 0 0 1 -5.38,2.65 7,7 0 0 1 -5.44,-2.2 V 499 h -3.26 v -26.29 h 3 l 0.16,2.11 a 6.71,6.71 0 0 1 5.52,-2.46 6.47,6.47 0 0 1 5.42,2.58 11.5,11.5 0 0 1 2,7.19 z m -3.25,-0.37 a 8.37,8.37 0 0 0 -1.37,-5.08 4.45,4.45 0 0 0 -3.77,-1.86 4.76,4.76 0 0 0 -4.42,2.62 v 9.08 a 4.77,4.77 0 0 0 4.46,2.61 4.39,4.39 0 0 0 3.72,-1.86 9.2,9.2 0 0 0 1.38,-5.51 z"
         id="path416" />
      <path
         d="m 445.79,468.1 v 4.61 h 3.55 v 2.51 h -3.55 V 487 a 2.58,2.58 0 0 0 0.48,1.72 2,2 0 0 0 1.61,0.57 8.14,8.14 0 0 0 1.55,-0.21 v 2.62 a 9.53,9.53 0 0 1 -2.49,0.35 4,4 0 0 1 -3.29,-1.32 5.7,5.7 0 0 1 -1.11,-3.74 v -11.8 h -3.46 v -2.51 h 3.46 v -4.58 z"
         id="path418" />
      <path
         d="m 454.06,467.66 a 2,2 0 0 1 0.48,-1.33 1.78,1.78 0 0 1 1.43,-0.55 1.83,1.83 0 0 1 1.45,0.55 2,2 0 0 1 0.49,1.33 1.77,1.77 0 0 1 -1.66,1.86 H 456 a 1.74,1.74 0 0 1 -1.91,-1.85 z m 3.51,24.07 h -3.25 v -19 h 3.25 z"
         id="path420" />
      <path
         d="m 471.31,489.43 a 4.7,4.7 0 0 0 3,-1.06 3.74,3.74 0 0 0 1.44,-2.64 h 3.07 a 5.85,5.85 0 0 1 -1.12,3.12 7.37,7.37 0 0 1 -2.7,2.35 8,8 0 0 1 -3.66,0.88 7.81,7.81 0 0 1 -6.18,-2.59 10.38,10.38 0 0 1 -2.3,-7.1 v -0.54 a 11.36,11.36 0 0 1 1,-4.94 7.83,7.83 0 0 1 2.93,-3.36 8.31,8.31 0 0 1 4.51,-1.19 7.7,7.7 0 0 1 5.32,1.91 6.85,6.85 0 0 1 2.25,5 h -3.07 a 4.52,4.52 0 0 0 -1.4,-3 4.34,4.34 0 0 0 -3.1,-1.19 4.57,4.57 0 0 0 -3.84,1.78 8.35,8.35 0 0 0 -1.37,5.16 v 0.62 a 8.24,8.24 0 0 0 1.36,5.06 4.58,4.58 0 0 0 3.86,1.73 z"
         id="path422" />
      <path
         d="m 495.16,491.73 a 6.84,6.84 0 0 1 -0.45,-2 7.25,7.25 0 0 1 -5.42,2.36 6.69,6.69 0 0 1 -4.61,-1.59 5.13,5.13 0 0 1 -1.8,-4 5.4,5.4 0 0 1 2.25,-4.62 10.73,10.73 0 0 1 6.36,-1.64 h 3.16 v -1.5 a 3.68,3.68 0 0 0 -1,-2.71 4,4 0 0 0 -3,-1 4.71,4.71 0 0 0 -2.92,0.88 2.56,2.56 0 0 0 -1.18,2.12 h -3.27 a 4.52,4.52 0 0 1 1,-2.75 7,7 0 0 1 2.75,-2.1 9.36,9.36 0 0 1 3.8,-0.77 7.54,7.54 0 0 1 5.17,1.59 5.94,5.94 0 0 1 1.93,4.53 v 8.75 a 10.77,10.77 0 0 0 0.67,4.17 v 0.28 z m -5.39,-2.48 a 5.69,5.69 0 0 0 2.9,-0.79 4.79,4.79 0 0 0 2,-2.06 v -3.9 h -2.57 q -6,0 -6,3.5 a 3,3 0 0 0 1,2.39 4,4 0 0 0 2.67,0.86 z"
         id="path424" />
      <path
         d="m 507.44,491.73 h -3.26 v -27 h 3.26 z"
         id="path426" />
      <path
         d="m 538,485 h -10.73 l -2.41,6.7 h -3.48 l 9.78,-25.6 h 3 l 9.84,25.6 h -3.46 z m -9.7,-2.76 h 8.7 l -4.36,-12 z"
         id="path428" />
      <path
         d="m 554.12,479.65 4.21,-6.94 h 3.8 l -6.22,9.4 6.42,9.62 h -3.77 l -4.39,-7.12 -4.4,7.12 H 546 l 6.41,-9.62 -6.22,-9.4 H 550 Z"
         id="path430" />
      <path
         d="m 566.49,467.66 a 2,2 0 0 1 0.49,-1.33 1.79,1.79 0 0 1 1.43,-0.55 1.81,1.81 0 0 1 1.44,0.55 1.91,1.91 0 0 1 0.49,1.33 1.84,1.84 0 0 1 -0.49,1.32 1.92,1.92 0 0 1 -1.44,0.53 1.85,1.85 0 0 1 -1.41,-0.51 1.89,1.89 0 0 1 -0.51,-1.34 z m 3.51,24.07 h -3.25 v -19 H 570 Z"
         id="path432" />
      <path
         d="m 587.19,486.68 a 2.37,2.37 0 0 0 -1,-2 9.49,9.49 0 0 0 -3.46,-1.26 15.91,15.91 0 0 1 -3.92,-1.27 5.44,5.44 0 0 1 -2.14,-1.75 4.2,4.2 0 0 1 -0.67,-2.4 4.93,4.93 0 0 1 2,-4 7.78,7.78 0 0 1 5,-1.61 7.9,7.9 0 0 1 5.25,1.67 5.28,5.28 0 0 1 2,4.27 H 587 a 2.91,2.91 0 0 0 -1.13,-2.3 4.27,4.27 0 0 0 -2.86,-1 4.41,4.41 0 0 0 -2.77,0.77 2.44,2.44 0 0 0 -1,2 2,2 0 0 0 0.94,1.78 11.41,11.41 0 0 0 3.36,1.14 18.16,18.16 0 0 1 4,1.3 5.75,5.75 0 0 1 2.24,1.82 4.44,4.44 0 0 1 0.73,2.6 4.86,4.86 0 0 1 -2,4.08 8.45,8.45 0 0 1 -5.29,1.54 9.49,9.49 0 0 1 -4,-0.81 6.52,6.52 0 0 1 -2.75,-2.26 5.4,5.4 0 0 1 -1,-3.13 h 3.25 a 3.4,3.4 0 0 0 1.31,2.59 5.12,5.12 0 0 0 3.23,1 5.19,5.19 0 0 0 3,-0.75 2.28,2.28 0 0 0 0.93,-2.02 z"
         id="path434" />
      <path
         d="m 865.58,278 h -10.72 l -2.41,6.7 H 849 l 9.77,-25.6 h 3 l 9.8,25.6 H 868 Z m -9.7,-2.76 h 8.7 l -4.36,-12 z"
         id="path436" />
      <path
         d="m 883,282.39 a 4.69,4.69 0 0 0 3,-1.05 3.69,3.69 0 0 0 1.44,-2.64 h 3.08 a 5.86,5.86 0 0 1 -1.13,3.11 7.27,7.27 0 0 1 -2.77,2.36 8,8 0 0 1 -3.66,0.88 7.88,7.88 0 0 1 -6.18,-2.59 10.33,10.33 0 0 1 -2.29,-7.1 v -0.54 a 11.36,11.36 0 0 1 1,-4.94 7.8,7.8 0 0 1 2.92,-3.36 8.31,8.31 0 0 1 4.51,-1.19 7.59,7.59 0 0 1 5.32,1.91 6.9,6.9 0 0 1 2.26,5 h -3.08 a 4.5,4.5 0 0 0 -1.4,-3 4.35,4.35 0 0 0 -3.1,-1.18 4.57,4.57 0 0 0 -3.84,1.78 8.42,8.42 0 0 0 -1.36,5.16 v 0.62 a 8.25,8.25 0 0 0 1.35,5.06 4.57,4.57 0 0 0 3.93,1.71 z"
         id="path438" />
      <path
         d="m 899.48,261.07 v 4.61 H 903 v 2.51 h -3.55 V 280 a 2.63,2.63 0 0 0 0.47,1.72 2,2 0 0 0 1.62,0.57 8.14,8.14 0 0 0 1.55,-0.21 v 2.62 a 9.55,9.55 0 0 1 -2.5,0.35 4.06,4.06 0 0 1 -3.29,-1.32 5.7,5.7 0 0 1 -1.11,-3.74 v -11.8 h -3.46 v -2.51 h 3.46 v -4.61 z"
         id="path440" />
      <path
         d="m 907.74,260.63 a 1.86,1.86 0 0 1 0.49,-1.33 1.78,1.78 0 0 1 1.43,-0.55 1.81,1.81 0 0 1 1.44,0.55 1.86,1.86 0 0 1 0.49,1.33 1.84,1.84 0 0 1 -0.49,1.32 1.92,1.92 0 0 1 -1.44,0.53 1.76,1.76 0 0 1 -1.92,-1.59 z m 3.52,24.07 H 908 v -19 h 3.25 z"
         id="path442" />
      <path
         d="m 923.64,280.28 4.71,-14.6 h 3.32 l -6.82,19 h -2.48 l -6.89,-19 h 3.32 z"
         id="path444" />
      <path
         d="m 943.36,285.05 a 8.31,8.31 0 0 1 -6.29,-2.54 9.46,9.46 0 0 1 -2.43,-6.8 v -0.59 a 11.46,11.46 0 0 1 1.08,-5.06 8.5,8.5 0 0 1 3,-3.48 7.58,7.58 0 0 1 4.21,-1.25 7.12,7.12 0 0 1 5.76,2.44 q 2.05,2.44 2.06,7 v 1.36 H 937.9 a 6.7,6.7 0 0 0 1.64,4.54 5.17,5.17 0 0 0 4,1.73 5.71,5.71 0 0 0 2.92,-0.7 7.29,7.29 0 0 0 2.09,-1.86 l 2,1.54 a 8,8 0 0 1 -7.19,3.67 z M 943,268 a 4.3,4.3 0 0 0 -3.31,1.43 6.93,6.93 0 0 0 -1.65,4 h 9.53 v -0.25 A 6.22,6.22 0 0 0 946.23,269.34 4.08,4.08 0 0 0 943,268 Z"
         id="path446" />
      <path
         d="m 969.16,281.94 h 12.13 v 2.76 h -15.53 v -25.6 h 3.4 z"
         id="path448" />
      <path
         d="m 997.27,284.7 a 6.85,6.85 0 0 1 -0.46,-2 7.23,7.23 0 0 1 -5.41,2.36 6.73,6.73 0 0 1 -4.62,-1.59 5.17,5.17 0 0 1 -1.8,-4 5.35,5.35 0 0 1 2.26,-4.61 10.61,10.61 0 0 1 6.35,-1.64 h 3.17 v -1.5 a 3.64,3.64 0 0 0 -1,-2.71 4.11,4.11 0 0 0 -3,-1 4.81,4.81 0 0 0 -2.91,0.88 2.59,2.59 0 0 0 -1.18,2.13 h -3.27 a 4.52,4.52 0 0 1 1,-2.75 6.82,6.82 0 0 1 2.74,-2.1 9.08,9.08 0 0 1 3.81,-0.77 7.5,7.5 0 0 1 5.15,1.6 5.94,5.94 0 0 1 1.93,4.53 v 8.75 a 10.59,10.59 0 0 0 0.67,4.17 v 0.28 z m -5.4,-2.48 a 5.79,5.79 0 0 0 2.9,-0.79 4.85,4.85 0 0 0 2,-2.06 v -3.9 h -2.55 c -4,0 -6,1.16 -6,3.5 a 3,3 0 0 0 1,2.39 4,4 0 0 0 2.65,0.86 z"
         id="path450" />
      <path
         d="m 1017.08,279.65 a 2.4,2.4 0 0 0 -1,-2 9.72,9.72 0 0 0 -3.46,-1.25 16.34,16.34 0 0 1 -3.92,-1.27 5.56,5.56 0 0 1 -2.15,-1.76 4.24,4.24 0 0 1 -0.69,-2.42 5,5 0 0 1 2,-4 7.7,7.7 0 0 1 5.06,-1.61 8,8 0 0 1 5.25,1.67 5.28,5.28 0 0 1 2,4.27 h -3.27 a 3,3 0 0 0 -1.14,-2.31 4.25,4.25 0 0 0 -2.85,-1 4.42,4.42 0 0 0 -2.78,0.77 2.42,2.42 0 0 0 -1,2 2,2 0 0 0 0.93,1.78 11.19,11.19 0 0 0 3.37,1.14 17.18,17.18 0 0 1 3.94,1.3 5.67,5.67 0 0 1 2.24,1.82 4.41,4.41 0 0 1 0.73,2.59 4.88,4.88 0 0 1 -2,4.09 8.45,8.45 0 0 1 -5.29,1.54 9.49,9.49 0 0 1 -4,-0.81 6.59,6.59 0 0 1 -2.75,-2.26 5.45,5.45 0 0 1 -1,-3.14 h 3.25 a 3.36,3.36 0 0 0 1.31,2.6 5.15,5.15 0 0 0 3.22,0.95 5.36,5.36 0 0 0 3,-0.74 2.3,2.3 0 0 0 1,-1.95 z"
         id="path452" />
      <path
         d="m 1033.36,285.05 a 8.35,8.35 0 0 1 -6.29,-2.54 9.46,9.46 0 0 1 -2.43,-6.8 v -0.59 a 11.34,11.34 0 0 1 1.09,-5.06 8.43,8.43 0 0 1 3,-3.48 7.58,7.58 0 0 1 4.21,-1.25 7.12,7.12 0 0 1 5.76,2.44 c 1.38,1.63 2.06,4 2.06,7 v 1.36 h -12.86 a 6.7,6.7 0 0 0 1.64,4.54 5.17,5.17 0 0 0 4,1.73 5.71,5.71 0 0 0 2.92,-0.7 7.29,7.29 0 0 0 2.09,-1.86 l 2,1.54 a 8,8 0 0 1 -7.19,3.67 z M 1033,268 a 4.3,4.3 0 0 0 -3.31,1.43 6.93,6.93 0 0 0 -1.65,4 h 9.53 v -0.25 a 6.16,6.16 0 0 0 -1.34,-3.84 A 4.08,4.08 0 0 0 1033,268 Z"
         id="path454" />
      <path
         d="m 1054.64,268.59 a 10.67,10.67 0 0 0 -1.6,-0.12 4.29,4.29 0 0 0 -4.34,2.73 v 13.5 h -3.26 v -19 h 3.17 l 0.05,2.19 a 5,5 0 0 1 4.54,-2.54 3.39,3.39 0 0 1 1.44,0.24 z"
         id="path456" />
      <path
         d="m 891.43,295.1 8.37,20.9 8.36,-20.89 h 4.38 v 25.6 h -3.37 v -10 l 0.31,-10.76 -8.4,20.73 h -2.58 l -8.39,-20.68 0.33,10.71 v 10 h -3.37 V 295.1 Z"
         id="path458" />
      <path
         d="m 926.78,321.05 a 8.31,8.31 0 0 1 -6.29,-2.54 9.46,9.46 0 0 1 -2.43,-6.8 v -0.59 a 11.46,11.46 0 0 1 1.08,-5.06 8.5,8.5 0 0 1 3,-3.48 7.58,7.58 0 0 1 4.21,-1.25 7.12,7.12 0 0 1 5.76,2.44 c 1.37,1.63 2,4 2.06,7 v 1.36 h -12.85 a 6.7,6.7 0 0 0 1.64,4.54 5.17,5.17 0 0 0 4,1.73 5.71,5.71 0 0 0 2.92,-0.7 7.29,7.29 0 0 0 2.09,-1.86 l 2,1.54 a 8,8 0 0 1 -7.19,3.67 z M 926.38,304 a 4.3,4.3 0 0 0 -3.31,1.43 6.93,6.93 0 0 0 -1.65,4 H 931 v -0.25 a 6.22,6.22 0 0 0 -1.34,-3.84 4,4 0 0 0 -3.28,-1.34 z"
         id="path460" />
      <path
         d="m 938.07,311 a 11.09,11.09 0 0 1 2.08,-7 7.06,7.06 0 0 1 10.72,-0.38 v -9.92 h 3.25 v 27 h -3 l -0.16,-2 a 6.62,6.62 0 0 1 -5.43,2.39 6.5,6.5 0 0 1 -5.39,-2.71 11.37,11.37 0 0 1 -2.08,-7.07 z m 3.25,0.37 a 8.45,8.45 0 0 0 1.34,5.06 4.29,4.29 0 0 0 3.69,1.83 4.75,4.75 0 0 0 4.52,-2.78 v -8.74 a 4.8,4.8 0 0 0 -4.48,-2.69 4.34,4.34 0 0 0 -3.73,1.85 9.25,9.25 0 0 0 -1.34,5.5 z"
         id="path462" />
      <path
         d="m 960.08,296.63 a 1.86,1.86 0 0 1 0.49,-1.33 1.79,1.79 0 0 1 1.43,-0.55 1.81,1.81 0 0 1 1.44,0.55 1.86,1.86 0 0 1 0.49,1.33 1.84,1.84 0 0 1 -0.49,1.32 1.92,1.92 0 0 1 -1.44,0.53 1.76,1.76 0 0 1 -1.92,-1.59 z m 3.52,24.07 h -3.25 v -19 h 3.25 z"
         id="path464" />
      <path
         d="m 981.44,318.82 a 6.93,6.93 0 0 1 -5.57,2.23 5.9,5.9 0 0 1 -4.63,-1.77 7.64,7.64 0 0 1 -1.61,-5.23 v -12.37 h 3.25 V 314 c 0,2.89 1.17,4.34 3.52,4.33 2.35,-0.01 4.14,-0.93 5,-2.78 v -13.87 h 3.25 v 19 h -3.1 z"
         id="path466" />
      <path
         d="m 993.51,301.68 0.08,2.11 a 7,7 0 0 1 5.65,-2.46 c 2.66,0 4.47,1 5.43,3.05 a 7.09,7.09 0 0 1 2.47,-2.21 7.36,7.36 0 0 1 3.59,-0.84 q 6.25,0 6.37,6.62 v 12.75 h -3.26 v -12.55 a 4.39,4.39 0 0 0 -0.93,-3 4.07,4.07 0 0 0 -3.13,-1 4.24,4.24 0 0 0 -4.39,4 v 12.55 h -3.27 v -12.47 c 0,-2.76 -1.35,-4.15 -4.06,-4.15 a 4.37,4.37 0 0 0 -4.38,2.73 v 13.89 h -3.25 v -19 z"
         id="path468" />
      <path
         d="m 584.34,758.45 h -8.22 v 22.83 h -3.36 v -22.83 h -8.21 v -2.76 h 19.79 z"
         id="path470" />
      <path
         d="m 585.93,771.6 a 11.36,11.36 0 0 1 1.1,-5 8.15,8.15 0 0 1 3.06,-3.44 8.27,8.27 0 0 1 4.47,-1.22 8,8 0 0 1 6.29,2.69 10.41,10.41 0 0 1 2.39,7.16 V 772 a 11.33,11.33 0 0 1 -1.06,5 8.13,8.13 0 0 1 -3,3.44 8.45,8.45 0 0 1 -4.54,1.23 8,8 0 0 1 -6.27,-2.69 10.32,10.32 0 0 1 -2.4,-7.12 z m 3.27,0.39 a 8.14,8.14 0 0 0 1.47,5.08 5,5 0 0 0 7.86,0 8.88,8.88 0 0 0 1.47,-5.47 8.06,8.06 0 0 0 -1.48,-5.07 4.7,4.7 0 0 0 -4,-1.95 4.65,4.65 0 0 0 -3.88,1.92 8.84,8.84 0 0 0 -1.44,5.5 z"
         id="path472" />
      <path
         d="m 612.63,757.66 v 4.6 h 3.56 v 2.52 h -3.56 v 11.81 a 2.56,2.56 0 0 0 0.48,1.71 2,2 0 0 0 1.62,0.58 8,8 0 0 0 1.54,-0.21 v 2.62 a 9.53,9.53 0 0 1 -2.49,0.35 4,4 0 0 1 -3.29,-1.32 5.67,5.67 0 0 1 -1.11,-3.75 v -11.79 h -3.46 v -2.52 h 3.46 v -4.6 z"
         id="path474" />
      <path
         d="m 632.62,781.28 a 6.91,6.91 0 0 1 -0.45,-2 7.25,7.25 0 0 1 -5.42,2.36 6.65,6.65 0 0 1 -4.61,-1.6 5.12,5.12 0 0 1 -1.8,-4 5.35,5.35 0 0 1 2.26,-4.61 10.55,10.55 0 0 1 6.35,-1.65 h 3.17 v -1.49 a 3.69,3.69 0 0 0 -1,-2.72 4.12,4.12 0 0 0 -3,-1 4.83,4.83 0 0 0 -2.92,0.88 2.62,2.62 0 0 0 -1.18,2.13 h -3.27 a 4.46,4.46 0 0 1 1,-2.75 6.73,6.73 0 0 1 2.74,-2.1 9,9 0 0 1 3.8,-0.78 7.5,7.5 0 0 1 5.15,1.65 5.91,5.91 0 0 1 1.94,4.52 v 8.76 A 10.52,10.52 0 0 0 636,781 v 0.28 z m -5.39,-2.47 a 5.7,5.7 0 0 0 2.9,-0.8 4.82,4.82 0 0 0 2,-2 v -3.9 h -2.55 q -6,0 -6,3.49 a 3,3 0 0 0 1,2.39 3.9,3.9 0 0 0 2.65,0.82 z"
         id="path476" />
      <path
         d="m 644.9,781.28 h -3.25 v -27 h 3.25 z"
         id="path478" />
      <path
         d="m 542.17,806.93 h -6 v 10.35 h -3.4 v -25.59 h 8.48 q 4.32,0 6.65,2 a 7.09,7.09 0 0 1 2.33,5.73 6.91,6.91 0 0 1 -1.29,4.17 7.73,7.73 0 0 1 -3.6,2.65 l 6,10.86 v 0.21 h -3.62 z m -6,-2.76 h 5.18 a 5.81,5.81 0 0 0 4,-1.3 4.42,4.42 0 0 0 1.49,-3.49 4.62,4.62 0 0 0 -1.42,-3.64 6,6 0 0 0 -4.09,-1.29 h -5.16 z"
         id="path480" />
      <path
         d="m 563.23,817.64 a 8.31,8.31 0 0 1 -6.29,-2.54 9.46,9.46 0 0 1 -2.43,-6.8 v -0.6 a 11.45,11.45 0 0 1 1.08,-5.05 8.43,8.43 0 0 1 3,-3.48 7.51,7.51 0 0 1 4.21,-1.26 7.11,7.11 0 0 1 5.76,2.45 c 1.37,1.63 2.05,4 2.06,7 v 1.36 h -12.86 a 6.76,6.76 0 0 0 1.65,4.54 5.17,5.17 0 0 0 4,1.73 5.67,5.67 0 0 0 2.91,-0.7 7.46,7.46 0 0 0 2.1,-1.86 l 2,1.54 a 8,8 0 0 1 -7.19,3.67 z m -0.4,-17.06 a 4.34,4.34 0 0 0 -3.31,1.44 6.93,6.93 0 0 0 -1.65,4 h 9.53 v -0.24 a 6.22,6.22 0 0 0 -1.34,-3.84 4.05,4.05 0 0 0 -3.23,-1.36 z"
         id="path482" />
      <path
         d="m 576.91,817.28 v -16.5 h -3 v -2.52 h 3 v -2 a 6.52,6.52 0 0 1 1.63,-4.73 6.18,6.18 0 0 1 4.63,-1.66 8.43,8.43 0 0 1 2.23,0.29 l -0.18,2.62 a 9.34,9.34 0 0 0 -1.75,-0.16 3.16,3.16 0 0 0 -2.45,0.93 3.8,3.8 0 0 0 -0.86,2.65 v 2 h 4.06 v 2.52 h -4.06 v 16.5 z"
         id="path484" />
      <path
         d="M 592.24,817.28 H 589 v -27 h 3.25 z"
         id="path486" />
      <path
         d="m 606.24,817.64 a 8.32,8.32 0 0 1 -6.3,-2.54 9.49,9.49 0 0 1 -2.42,-6.8 v -0.6 a 11.45,11.45 0 0 1 1.08,-5.05 8.5,8.5 0 0 1 3,-3.48 7.59,7.59 0 0 1 4.21,-1.26 7.13,7.13 0 0 1 5.77,2.45 c 1.37,1.63 2,4 2,7 v 1.36 h -12.81 a 6.75,6.75 0 0 0 1.64,4.54 5.17,5.17 0 0 0 4,1.73 5.71,5.71 0 0 0 2.92,-0.7 7.29,7.29 0 0 0 2.09,-1.86 l 2,1.54 a 8,8 0 0 1 -7.18,3.67 z m -0.41,-17.06 a 4.32,4.32 0 0 0 -3.3,1.44 6.93,6.93 0 0 0 -1.65,4 h 9.52 v -0.24 a 6.21,6.21 0 0 0 -1.33,-3.84 4.07,4.07 0 0 0 -3.24,-1.36 z"
         id="path488" />
      <path
         d="m 626,815 a 4.69,4.69 0 0 0 3,-1 3.81,3.81 0 0 0 1.44,-2.64 h 3.07 a 5.77,5.77 0 0 1 -1.12,3.11 7.43,7.43 0 0 1 -2.77,2.36 8,8 0 0 1 -3.66,0.88 7.84,7.84 0 0 1 -6.18,-2.6 10.34,10.34 0 0 1 -2.3,-7.09 v -0.54 a 11.36,11.36 0 0 1 1,-4.94 7.83,7.83 0 0 1 2.93,-3.36 8.32,8.32 0 0 1 4.51,-1.2 7.65,7.65 0 0 1 5.32,1.92 6.82,6.82 0 0 1 2.25,5 h -3.07 a 4.52,4.52 0 0 0 -1.4,-3 4.36,4.36 0 0 0 -3.1,-1.19 4.56,4.56 0 0 0 -3.84,1.79 8.35,8.35 0 0 0 -1.37,5.16 v 0.61 a 8.29,8.29 0 0 0 1.36,5.07 4.57,4.57 0 0 0 3.93,1.66 z"
         id="path490" />
      <path
         d="m 642.47,793.66 v 4.6 H 646 v 2.52 h -3.55 v 11.81 a 2.56,2.56 0 0 0 0.48,1.71 2,2 0 0 0 1.61,0.58 8.14,8.14 0 0 0 1.55,-0.21 v 2.62 a 9.55,9.55 0 0 1 -2.5,0.35 4,4 0 0 1 -3.28,-1.32 5.67,5.67 0 0 1 -1.11,-3.75 v -11.79 h -3.46 v -2.52 h 3.46 v -4.6 z"
         id="path492" />
      <path
         d="m 649.51,807.6 a 11.09,11.09 0 0 1 1.1,-5 8.13,8.13 0 0 1 3,-3.44 8.33,8.33 0 0 1 4.48,-1.22 8,8 0 0 1 6.28,2.69 10.37,10.37 0 0 1 2.4,7.16 V 808 a 11.33,11.33 0 0 1 -1.06,5 8.13,8.13 0 0 1 -3,3.44 8.49,8.49 0 0 1 -4.55,1.23 8,8 0 0 1 -6.26,-2.67 10.32,10.32 0 0 1 -2.4,-7.12 z m 3.27,0.39 a 8.21,8.21 0 0 0 1.46,5.08 5,5 0 0 0 7,0.85 4.88,4.88 0 0 0 0.85,-0.85 9,9 0 0 0 1.46,-5.44 8.13,8.13 0 0 0 -1.49,-5.07 4.93,4.93 0 0 0 -6.91,-0.92 4.72,4.72 0 0 0 -0.92,0.92 8.9,8.9 0 0 0 -1.47,5.44 z"
         id="path494" />
      <path
         d="m 681,801.18 a 10.67,10.67 0 0 0 -1.6,-0.12 4.29,4.29 0 0 0 -4.34,2.72 v 13.5 h -3.26 v -19 h 3.2 l 0.06,2.2 a 5,5 0 0 1 4.53,-2.55 3.4,3.4 0 0 1 1.44,0.25 z"
         id="path496" />
      <path
         d="m 1184.72,771.26 v 10 h -3.37 v -25.57 h 9.44 a 9.53,9.53 0 0 1 6.58,2.14 7.29,7.29 0 0 1 2.38,5.68 7.13,7.13 0 0 1 -2.33,5.74 c -1.55,1.33 -3.78,2 -6.67,2 z m 0,-2.76 h 6.07 a 6.09,6.09 0 0 0 4.15,-1.27 4.7,4.7 0 0 0 1.44,-3.69 4.82,4.82 0 0 0 -1.44,-3.66 5.66,5.66 0 0 0 -4,-1.43 h -6.26 z"
         id="path498" />
      <path
         d="m 1216,781.28 a 6.85,6.85 0 0 1 -0.46,-2 7.23,7.23 0 0 1 -5.41,2.36 6.66,6.66 0 0 1 -4.62,-1.6 5.12,5.12 0 0 1 -1.8,-4 5.35,5.35 0 0 1 2.26,-4.61 10.58,10.58 0 0 1 6.36,-1.65 h 3.16 v -1.49 a 3.69,3.69 0 0 0 -1,-2.72 4.12,4.12 0 0 0 -3,-1 4.81,4.81 0 0 0 -2.91,0.88 2.59,2.59 0 0 0 -1.18,2.13 h -3.27 a 4.52,4.52 0 0 1 1,-2.75 6.82,6.82 0 0 1 2.74,-2.1 9.09,9.09 0 0 1 3.81,-0.78 7.5,7.5 0 0 1 5.15,1.65 5.92,5.92 0 0 1 1.93,4.52 v 8.76 a 10.54,10.54 0 0 0 0.67,4.16 v 0.28 z m -5.4,-2.47 a 5.7,5.7 0 0 0 2.9,-0.8 4.71,4.71 0 0 0 2,-2 v -3.9 h -2.5 q -6,0 -6,3.49 a 3,3 0 0 0 1,2.39 3.9,3.9 0 0 0 2.65,0.82 z"
         id="path500" />
      <path
         d="m 1233.93,765.18 a 10.67,10.67 0 0 0 -1.6,-0.12 4.29,4.29 0 0 0 -4.34,2.72 v 13.5 h -3.25 v -19 h 3.16 l 0.06,2.2 a 5,5 0 0 1 4.53,-2.55 3.4,3.4 0 0 1 1.44,0.25 z"
         id="path502" />
      <path
         d="m 1243.11,757.66 v 4.6 h 3.55 v 2.52 h -3.55 v 11.81 a 2.56,2.56 0 0 0 0.48,1.71 2,2 0 0 0 1.61,0.58 8.14,8.14 0 0 0 1.55,-0.21 v 2.62 a 9.55,9.55 0 0 1 -2.5,0.35 4,4 0 0 1 -3.28,-1.32 5.67,5.67 0 0 1 -1.11,-3.75 v -11.79 h -3.46 v -2.52 h 3.46 v -4.6 z"
         id="path504" />
      <path
         d="m 1251.38,757.22 a 2,2 0 0 1 0.48,-1.34 2.18,2.18 0 0 1 2.87,0 2,2 0 0 1 0.5,1.34 2,2 0 0 1 -3.37,1.32 1.88,1.88 0 0 1 -0.48,-1.32 z m 3.51,24.06 h -3.25 v -19 h 3.25 z"
         id="path506" />
      <path
         d="m 1272.74,781.28 a 6.85,6.85 0 0 1 -0.46,-2 7.27,7.27 0 0 1 -5.41,2.36 6.66,6.66 0 0 1 -4.62,-1.6 5.12,5.12 0 0 1 -1.8,-4 5.35,5.35 0 0 1 2.26,-4.61 10.62,10.62 0 0 1 6.35,-1.65 h 3.17 v -1.49 a 3.69,3.69 0 0 0 -1,-2.72 4.12,4.12 0 0 0 -3,-1 4.81,4.81 0 0 0 -2.91,0.88 2.59,2.59 0 0 0 -1.18,2.13 h -3.27 a 4.46,4.46 0 0 1 1,-2.75 6.82,6.82 0 0 1 2.74,-2.1 9.09,9.09 0 0 1 3.81,-0.78 7.5,7.5 0 0 1 5.15,1.65 5.92,5.92 0 0 1 1.93,4.52 v 8.76 a 10.54,10.54 0 0 0 0.67,4.16 v 0.28 z m -5.4,-2.47 a 5.7,5.7 0 0 0 2.9,-0.8 4.71,4.71 0 0 0 2,-2 v -3.9 h -2.55 q -6,0 -6,3.49 a 3,3 0 0 0 1,2.39 3.9,3.9 0 0 0 2.65,0.82 z"
         id="path508" />
      <path
         d="m 1285,781.28 h -3.25 v -27 h 3.25 z"
         id="path510" />
      <path
         d="m 1310.82,770.93 h -6 v 10.35 h -3.39 v -25.59 h 8.47 q 4.32,0 6.65,2 a 7,7 0 0 1 2.33,5.73 6.91,6.91 0 0 1 -1.29,4.17 7.71,7.71 0 0 1 -3.59,2.65 l 6,10.86 v 0.21 h -3.62 z m -6,-2.76 h 5.18 a 5.86,5.86 0 0 0 4,-1.3 4.41,4.41 0 0 0 1.48,-3.49 4.65,4.65 0 0 0 -1.41,-3.64 6,6 0 0 0 -4.09,-1.29 h -5.17 z"
         id="path512" />
      <path
         d="m 1331.88,781.64 a 8.35,8.35 0 0 1 -6.29,-2.54 9.41,9.41 0 0 1 -2.42,-6.8 v -0.6 a 11.45,11.45 0 0 1 1.08,-5.05 8.5,8.5 0 0 1 3,-3.48 7.59,7.59 0 0 1 4.21,-1.26 7.13,7.13 0 0 1 5.77,2.45 c 1.37,1.63 2,4 2,7 v 1.36 h -12.88 a 6.7,6.7 0 0 0 1.64,4.54 5.17,5.17 0 0 0 4,1.73 5.71,5.71 0 0 0 2.92,-0.7 7.29,7.29 0 0 0 2.09,-1.86 l 2,1.54 a 8,8 0 0 1 -7.12,3.67 z m -0.4,-17.06 a 4.32,4.32 0 0 0 -3.3,1.44 6.88,6.88 0 0 0 -1.66,4 h 9.53 v -0.24 a 6.16,6.16 0 0 0 -1.34,-3.84 4.05,4.05 0 0 0 -3.23,-1.36 z"
         id="path514" />
      <path
         d="m 1345.56,781.28 v -16.5 h -3 v -2.52 h 3 v -2 a 6.47,6.47 0 0 1 1.64,-4.73 6.16,6.16 0 0 1 4.62,-1.66 8.43,8.43 0 0 1 2.23,0.29 l -0.17,2.62 a 9.45,9.45 0 0 0 -1.76,-0.16 3.13,3.13 0 0 0 -2.44,0.93 3.71,3.71 0 0 0 -0.86,2.65 v 2 h 4.06 v 2.52 h -4.06 v 16.5 z"
         id="path516" />
      <path
         d="m 1360.9,781.28 h -3.26 v -27 h 3.26 z"
         id="path518" />
      <path
         d="m 1374.89,781.64 a 8.31,8.31 0 0 1 -6.29,-2.54 9.46,9.46 0 0 1 -2.43,-6.8 v -0.6 a 11.45,11.45 0 0 1 1.08,-5.05 8.43,8.43 0 0 1 3,-3.48 7.59,7.59 0 0 1 4.21,-1.26 7.11,7.11 0 0 1 5.76,2.45 c 1.37,1.63 2,4 2.06,7 v 1.36 h -12.89 a 6.76,6.76 0 0 0 1.65,4.54 5.17,5.17 0 0 0 4,1.73 5.71,5.71 0 0 0 2.92,-0.7 7.29,7.29 0 0 0 2.09,-1.86 l 2,1.54 a 8,8 0 0 1 -7.16,3.67 z m -0.4,-17.06 a 4.34,4.34 0 0 0 -3.31,1.44 6.93,6.93 0 0 0 -1.65,4 h 9.53 v -0.24 a 6.22,6.22 0 0 0 -1.34,-3.84 4.05,4.05 0 0 0 -3.23,-1.36 z"
         id="path520" />
      <path
         d="m 1394.6,779 a 4.69,4.69 0 0 0 3,-1 3.74,3.74 0 0 0 1.44,-2.64 h 3.08 a 5.86,5.86 0 0 1 -1.13,3.11 7.49,7.49 0 0 1 -2.76,2.36 8.07,8.07 0 0 1 -3.67,0.88 7.84,7.84 0 0 1 -6.18,-2.6 10.3,10.3 0 0 1 -2.29,-7.09 v -0.54 a 11.36,11.36 0 0 1 1,-4.94 7.74,7.74 0 0 1 2.92,-3.36 8.32,8.32 0 0 1 4.51,-1.2 7.6,7.6 0 0 1 5.32,1.92 6.82,6.82 0 0 1 2.26,5 h -3.1 a 4.51,4.51 0 0 0 -1.39,-3 4.38,4.38 0 0 0 -3.11,-1.19 4.56,4.56 0 0 0 -3.84,1.79 8.42,8.42 0 0 0 -1.36,5.16 v 0.61 a 8.28,8.28 0 0 0 1.35,5.07 4.62,4.62 0 0 0 3.95,1.66 z"
         id="path522" />
      <path
         d="m 1411.13,757.66 v 4.6 h 3.55 v 2.52 h -3.55 v 11.81 a 2.66,2.66 0 0 0 0.47,1.71 2,2 0 0 0 1.62,0.58 8.14,8.14 0 0 0 1.55,-0.21 v 2.62 a 9.55,9.55 0 0 1 -2.5,0.35 4.06,4.06 0 0 1 -3.29,-1.32 5.66,5.66 0 0 1 -1.1,-3.75 v -11.79 h -3.47 v -2.52 h 3.47 v -4.6 z"
         id="path524" />
      <path
         d="m 1418.16,771.6 a 11.36,11.36 0 0 1 1.1,-5 8.15,8.15 0 0 1 3.06,-3.44 8.36,8.36 0 0 1 4.47,-1.22 8,8 0 0 1 6.29,2.69 10.37,10.37 0 0 1 2.4,7.16 V 772 a 11.34,11.34 0 0 1 -1.07,5 8.13,8.13 0 0 1 -3,3.44 8.45,8.45 0 0 1 -4.54,1.23 8,8 0 0 1 -6.27,-2.69 10.32,10.32 0 0 1 -2.4,-7.12 z m 3.27,0.39 a 8.14,8.14 0 0 0 1.47,5.08 5,5 0 0 0 7,0.85 4.88,4.88 0 0 0 0.85,-0.85 8.89,8.89 0 0 0 1.45,-5.44 8.06,8.06 0 0 0 -1.48,-5.07 4.7,4.7 0 0 0 -4,-1.95 4.65,4.65 0 0 0 -3.88,1.92 8.83,8.83 0 0 0 -1.43,5.47 z"
         id="path526" />
      <path
         d="m 1449.65,765.18 a 10.67,10.67 0 0 0 -1.6,-0.12 4.29,4.29 0 0 0 -4.34,2.72 v 13.5 h -3.26 v -19 h 3.17 l 0.05,2.2 a 5.08,5.08 0 0 1 4.54,-2.55 3.4,3.4 0 0 1 1.44,0.25 z"
         id="path528" />
      <path
         d="m 1176.92,806.9 a 27,27 0 0 1 1.07,-7.63 21.67,21.67 0 0 1 3.17,-6.65 13.48,13.48 0 0 1 4.38,-4.22 l 0.66,2.15 a 14,14 0 0 0 -4.21,6 26.23,26.23 0 0 0 -1.8,9.05 v 1.5 a 26.15,26.15 0 0 0 2.48,11.77 14,14 0 0 0 3.55,4.68 l -0.66,2 a 14,14 0 0 1 -4.47,-4.36 24.45,24.45 0 0 1 -4.17,-14.29 z"
         id="path530" />
      <path
         d="m 1210.45,805.31 a 15.93,15.93 0 0 1 -1.27,6.57 9.54,9.54 0 0 1 -3.59,4.28 10.51,10.51 0 0 1 -10.77,0 9.71,9.71 0 0 1 -3.63,-4.24 15.2,15.2 0 0 1 -1.33,-6.37 v -1.85 a 15.77,15.77 0 0 1 1.29,-6.53 9.49,9.49 0 0 1 9,-5.83 10,10 0 0 1 5.42,1.48 9.55,9.55 0 0 1 3.61,4.31 16.1,16.1 0 0 1 1.27,6.57 z m -3.36,-1.65 q 0,-4.54 -1.83,-7 a 6.47,6.47 0 0 0 -10.11,0 11.18,11.18 0 0 0 -1.89,6.76 v 1.88 a 11.52,11.52 0 0 0 1.85,6.94 6.5,6.5 0 0 0 9.12,1.16 6.34,6.34 0 0 0 1,-1 c 1.2,-1.59 1.81,-3.87 1.85,-6.83 z"
         id="path532" />
      <path
         d="m 1227.64,815.4 a 6.91,6.91 0 0 1 -5.57,2.24 5.9,5.9 0 0 1 -4.63,-1.77 7.64,7.64 0 0 1 -1.61,-5.23 v -12.38 h 3.25 v 12.29 c 0,2.88 1.17,4.33 3.52,4.33 2.35,0 4.13,-0.93 5,-2.78 v -13.84 h 3.26 v 19 h -3.1 z"
         id="path534" />
      <path
         d="m 1241.06,793.66 v 4.6 h 3.55 v 2.52 h -3.55 v 11.81 a 2.66,2.66 0 0 0 0.47,1.71 2,2 0 0 0 1.62,0.58 8.14,8.14 0 0 0 1.55,-0.21 v 2.62 a 9.55,9.55 0 0 1 -2.5,0.35 4.06,4.06 0 0 1 -3.29,-1.32 5.66,5.66 0 0 1 -1.1,-3.75 v -11.79 h -3.47 v -2.52 h 3.47 v -4.6 z"
         id="path536" />
      <path
         d="m 1265.37,808 a 11.33,11.33 0 0 1 -2,7 6.34,6.34 0 0 1 -5.37,2.66 7,7 0 0 1 -5.45,-2.2 v 9.16 h -3.26 v -26.36 h 3 l 0.15,2.11 a 6.71,6.71 0 0 1 5.52,-2.46 6.49,6.49 0 0 1 5.43,2.59 11.5,11.5 0 0 1 2,7.19 z m -3.25,-0.37 a 8.37,8.37 0 0 0 -1.37,-5.08 4.41,4.41 0 0 0 -3.76,-1.87 4.79,4.79 0 0 0 -4.43,2.62 v 9.09 a 4.79,4.79 0 0 0 4.44,2.61 4.41,4.41 0 0 0 3.72,-1.85 9.21,9.21 0 0 0 1.4,-5.53 z"
         id="path538" />
      <path
         d="m 1282.14,815.4 a 6.91,6.91 0 0 1 -5.57,2.24 5.9,5.9 0 0 1 -4.63,-1.77 7.64,7.64 0 0 1 -1.61,-5.23 v -12.38 h 3.25 v 12.29 c 0,2.88 1.18,4.33 3.52,4.33 2.34,0 4.14,-0.93 5,-2.78 v -13.84 h 3.25 v 19 h -3.1 z"
         id="path540" />
      <path
         d="m 1295.56,793.66 v 4.6 h 3.55 v 2.52 h -3.55 v 11.81 a 2.66,2.66 0 0 0 0.47,1.71 2,2 0 0 0 1.62,0.58 8.14,8.14 0 0 0 1.55,-0.21 v 2.62 a 9.55,9.55 0 0 1 -2.5,0.35 4,4 0 0 1 -3.28,-1.32 5.67,5.67 0 0 1 -1.11,-3.75 v -11.79 h -3.47 v -2.52 h 3.47 v -4.6 z"
         id="path542" />
      <path
         d="m 1333,809.16 a 9.45,9.45 0 0 1 -3,6.27 9.86,9.86 0 0 1 -6.71,2.21 9,9 0 0 1 -7.27,-3.26 q -2.73,-3.24 -2.73,-8.7 v -2.46 a 14.56,14.56 0 0 1 1.28,-6.27 9.53,9.53 0 0 1 3.61,-4.16 10,10 0 0 1 5.41,-1.45 9.22,9.22 0 0 1 6.54,2.28 9.46,9.46 0 0 1 2.87,6.3 h -3.4 a 7.46,7.46 0 0 0 -1.9,-4.45 5.8,5.8 0 0 0 -4.11,-1.37 6.05,6.05 0 0 0 -5.07,2.39 11,11 0 0 0 -1.84,6.81 v 2.48 a 11.32,11.32 0 0 0 1.74,6.63 5.63,5.63 0 0 0 4.87,2.47 6.49,6.49 0 0 0 4.32,-1.28 7,7 0 0 0 2,-4.44 z"
         id="path544" />
      <path
         d="m 1337.09,807.6 a 11.36,11.36 0 0 1 1.1,-5 8.15,8.15 0 0 1 3.06,-3.44 8.27,8.27 0 0 1 4.47,-1.22 8,8 0 0 1 6.28,2.69 10.37,10.37 0 0 1 2.4,7.16 V 808 a 11.33,11.33 0 0 1 -1.06,5 8.13,8.13 0 0 1 -3,3.44 8.45,8.45 0 0 1 -4.54,1.23 8,8 0 0 1 -6.27,-2.69 10.32,10.32 0 0 1 -2.4,-7.12 z m 3.27,0.39 a 8.14,8.14 0 0 0 1.47,5.08 4.74,4.74 0 0 0 3.93,1.91 4.66,4.66 0 0 0 3.93,-1.94 8.83,8.83 0 0 0 1.46,-5.44 8.06,8.06 0 0 0 -1.48,-5.07 4.7,4.7 0 0 0 -4,-1.95 4.65,4.65 0 0 0 -3.88,1.92 8.85,8.85 0 0 0 -1.43,5.5 z"
         id="path546" />
      <path
         d="m 1371.12,815.4 a 6.91,6.91 0 0 1 -5.57,2.24 5.9,5.9 0 0 1 -4.63,-1.77 7.64,7.64 0 0 1 -1.61,-5.23 v -12.38 h 3.25 v 12.29 c 0,2.88 1.18,4.33 3.52,4.33 2.34,0 4.14,-0.93 5,-2.78 v -13.84 h 3.25 v 19 h -3.09 z"
         id="path548" />
      <path
         d="m 1396.19,808 a 11.4,11.4 0 0 1 -2,7 6.39,6.39 0 0 1 -5.38,2.66 7,7 0 0 1 -5.45,-2.2 v 9.16 h -3.25 v -26.36 h 3 l 0.16,2.11 a 6.67,6.67 0 0 1 5.52,-2.46 6.47,6.47 0 0 1 5.42,2.59 11.5,11.5 0 0 1 2,7.19 z m -3.25,-0.37 a 8.37,8.37 0 0 0 -1.37,-5.08 4.41,4.41 0 0 0 -3.76,-1.87 4.79,4.79 0 0 0 -4.43,2.62 v 9.09 a 4.78,4.78 0 0 0 4.46,2.6 4.41,4.41 0 0 0 3.72,-1.85 9.18,9.18 0 0 0 1.38,-5.52 z"
         id="path550" />
      <path
         d="m 1404.76,817.28 h -3.25 v -27 h 3.25 z"
         id="path552" />
      <path
         d="m 1418.75,817.64 a 8.35,8.35 0 0 1 -6.29,-2.54 9.41,9.41 0 0 1 -2.42,-6.8 v -0.6 a 11.45,11.45 0 0 1 1.08,-5.05 8.5,8.5 0 0 1 3,-3.48 7.59,7.59 0 0 1 4.21,-1.26 7.13,7.13 0 0 1 5.77,2.45 c 1.37,1.63 2.06,4 2.05,7 v 1.36 h -12.88 a 6.7,6.7 0 0 0 1.64,4.54 5.17,5.17 0 0 0 4,1.73 5.71,5.71 0 0 0 2.92,-0.7 7.29,7.29 0 0 0 2.09,-1.86 l 2,1.54 a 8,8 0 0 1 -7.17,3.67 z m -0.4,-17.06 a 4.32,4.32 0 0 0 -3.3,1.44 6.88,6.88 0 0 0 -1.66,4 h 9.53 v -0.24 a 6.16,6.16 0 0 0 -1.34,-3.84 4.05,4.05 0 0 0 -3.23,-1.36 z"
         id="path554" />
      <path
         d="m 1440,801.18 a 10.67,10.67 0 0 0 -1.6,-0.12 4.28,4.28 0 0 0 -4.34,2.72 v 13.5 h -3.26 v -19 h 3.2 v 2.2 a 5.08,5.08 0 0 1 4.54,-2.55 3.4,3.4 0 0 1 1.44,0.25 z"
         id="path556" />
      <path
         d="m 1451.42,807.07 a 27.31,27.31 0 0 1 -1,7.52 22.07,22.07 0 0 1 -3.14,6.63 13.81,13.81 0 0 1 -4.44,4.33 l -0.69,-2 a 14,14 0 0 0 4.35,-6.44 27.89,27.89 0 0 0 1.68,-9.7 v -0.56 a 28.81,28.81 0 0 0 -0.77,-6.86 23.57,23.57 0 0 0 -2.15,-5.69 13.15,13.15 0 0 0 -3.11,-3.92 l 0.69,-2 a 13.83,13.83 0 0 1 4.42,4.29 22.34,22.34 0 0 1 3.15,6.63 28,28 0 0 1 1.01,7.77 z"
         id="path558" />
      <path
         d="m 847.1,774.19 v 10 h -3.38 v -25.57 h 9.44 a 9.49,9.49 0 0 1 6.59,2.14 7.32,7.32 0 0 1 2.38,5.68 7.16,7.16 0 0 1 -2.33,5.74 c -1.55,1.34 -3.78,2 -6.67,2 z m 0,-2.76 h 6.06 a 6.09,6.09 0 0 0 4.15,-1.27 4.7,4.7 0 0 0 1.44,-3.69 4.82,4.82 0 0 0 -1.44,-3.66 5.62,5.62 0 0 0 -3.95,-1.43 h -6.26 z"
         id="path560" />
      <path
         d="m 878.57,782.33 a 6.93,6.93 0 0 1 -5.57,2.23 5.91,5.91 0 0 1 -4.64,-1.76 7.71,7.71 0 0 1 -1.61,-5.23 V 765.19 H 870 v 12.29 q 0,4.32 3.51,4.32 3.74,0 5,-2.77 v -13.84 h 3.25 v 19 h -3.09 z"
         id="path562" />
      <path
         d="m 890.63,765.19 0.09,2.11 a 7,7 0 0 1 5.64,-2.46 q 4,0 5.43,3.06 a 7.13,7.13 0 0 1 6.07,-3.06 q 6.25,0 6.36,6.63 v 12.74 H 911 v -12.55 a 4.39,4.39 0 0 0 -0.93,-3 4.15,4.15 0 0 0 -3.13,-1 4.22,4.22 0 0 0 -4.39,4 v 12.62 h -3.27 v -12.53 q 0,-4.15 -4.06,-4.15 a 4.33,4.33 0 0 0 -4.37,2.73 v 13.88 h -3.26 v -19 z"
         id="path564" />
      <path
         d="m 936.09,774.91 a 11.33,11.33 0 0 1 -2,7 6.33,6.33 0 0 1 -5.37,2.65 7,7 0 0 1 -5.45,-2.19 v 9.16 H 920 v -26.34 h 3 l 0.16,2.11 a 6.71,6.71 0 0 1 5.52,-2.46 6.49,6.49 0 0 1 5.43,2.59 11.49,11.49 0 0 1 2,7.19 z m -3.25,-0.37 a 8.44,8.44 0 0 0 -1.37,-5.08 4.43,4.43 0 0 0 -3.76,-1.86 4.77,4.77 0 0 0 -4.43,2.62 v 9.09 a 4.78,4.78 0 0 0 4.46,2.6 4.41,4.41 0 0 0 3.72,-1.85 9.25,9.25 0 0 0 1.38,-5.52 z"
         id="path566" />
      <path
         d="m 959,772.8 a 15.9,15.9 0 0 1 -6.32,-3.06 5.87,5.87 0 0 1 -2,-4.49 6.19,6.19 0 0 1 2.41,-5 9.59,9.59 0 0 1 6.29,-2 10.47,10.47 0 0 1 4.7,1 7.7,7.7 0 0 1 3.2,2.81 7.16,7.16 0 0 1 1.13,3.92 H 965 a 4.67,4.67 0 0 0 -1.48,-3.66 6,6 0 0 0 -4.16,-1.33 6.09,6.09 0 0 0 -3.9,1.1 3.68,3.68 0 0 0 -1.39,3 3.33,3.33 0 0 0 1.32,2.65 12.75,12.75 0 0 0 4.52,2 20.83,20.83 0 0 1 5,2 7.56,7.56 0 0 1 2.68,2.53 6.4,6.4 0 0 1 0.87,3.39 6,6 0 0 1 -2.43,5 10.36,10.36 0 0 1 -6.49,1.87 11.9,11.9 0 0 1 -4.92,-1 8.23,8.23 0 0 1 -3.52,-2.76 6.74,6.74 0 0 1 -1.24,-4 h 3.39 a 4.4,4.4 0 0 0 1.71,3.67 7.22,7.22 0 0 0 4.58,1.34 6.62,6.62 0 0 0 4.1,-1.09 3.86,3.86 0 0 0 0.56,-5.42 4.89,4.89 0 0 0 -0.45,-0.46 15.56,15.56 0 0 0 -4.75,-2.01 z"
         id="path568" />
      <path
         d="m 972.33,774.53 a 11.23,11.23 0 0 1 1.1,-5 8.17,8.17 0 0 1 3.06,-3.45 8.49,8.49 0 0 1 4.47,-1.21 8,8 0 0 1 6.29,2.69 10.37,10.37 0 0 1 2.39,7.16 v 0.22 a 11.33,11.33 0 0 1 -1.06,5 8,8 0 0 1 -3,3.43 8.45,8.45 0 0 1 -4.58,1.23 8,8 0 0 1 -6.27,-2.68 10.32,10.32 0 0 1 -2.4,-7.12 z m 3.27,0.38 a 8.14,8.14 0 0 0 1.47,5.08 5,5 0 0 0 7,0.84 5.56,5.56 0 0 0 0.84,-0.84 8.83,8.83 0 0 0 1.46,-5.44 8.06,8.06 0 0 0 -1.48,-5.07 4.72,4.72 0 0 0 -3.95,-2 4.65,4.65 0 0 0 -3.88,1.92 8.82,8.82 0 0 0 -1.48,5.51 z"
         id="path570" />
      <path
         d="m 1006.36,782.33 a 6.87,6.87 0 0 1 -5.57,2.23 5.89,5.89 0 0 1 -4.63,-1.76 7.64,7.64 0 0 1 -1.61,-5.23 v -12.38 h 3.25 v 12.29 c 0,2.88 1.18,4.32 3.52,4.32 2.34,0 4.14,-0.92 5,-2.77 v -13.84 h 3.25 v 19 h -3.1 z"
         id="path572" />
      <path
         d="m 1024.56,768.11 a 10.67,10.67 0 0 0 -1.6,-0.12 4.29,4.29 0 0 0 -4.34,2.72 v 13.5 h -3.25 v -19 h 3.16 l 0.05,2.2 a 5.08,5.08 0 0 1 4.54,-2.55 3.23,3.23 0 0 1 1.44,0.25 z"
         id="path574" />
      <path
         d="m 1035.74,781.91 a 4.72,4.72 0 0 0 3,-1 3.81,3.81 0 0 0 1.44,-2.64 h 3.07 a 5.93,5.93 0 0 1 -1.12,3.11 7.61,7.61 0 0 1 -2.77,2.36 8.09,8.09 0 0 1 -3.67,0.87 7.78,7.78 0 0 1 -6.17,-2.59 10.34,10.34 0 0 1 -2.3,-7.09 v -0.55 a 11.36,11.36 0 0 1 1,-4.94 7.8,7.8 0 0 1 2.93,-3.35 8.32,8.32 0 0 1 4.51,-1.2 7.58,7.58 0 0 1 5.31,1.92 6.82,6.82 0 0 1 2.26,5 h -3.07 a 4.52,4.52 0 0 0 -1.4,-3 4.36,4.36 0 0 0 -3.1,-1.19 4.5,4.5 0 0 0 -3.84,1.79 8.35,8.35 0 0 0 -1.37,5.16 v 0.61 a 8.11,8.11 0 0 0 1.36,5.06 4.56,4.56 0 0 0 3.93,1.67 z"
         id="path576" />
      <path
         d="m 1055.75,784.56 a 8.28,8.28 0 0 1 -6.29,-2.54 9.38,9.38 0 0 1 -2.43,-6.79 v -0.6 a 11.49,11.49 0 0 1 1.08,-5 8.43,8.43 0 0 1 3,-3.48 7.59,7.59 0 0 1 4.21,-1.26 7.11,7.11 0 0 1 5.76,2.45 c 1.37,1.62 2.06,4 2.06,7 v 1.35 h -12.88 a 6.71,6.71 0 0 0 1.64,4.55 5.17,5.17 0 0 0 4,1.73 5.71,5.71 0 0 0 2.92,-0.7 7.33,7.33 0 0 0 2.09,-1.87 l 2,1.55 a 8,8 0 0 1 -7.16,3.61 z m -0.4,-17 a 4.32,4.32 0 0 0 -3.35,1.44 6.93,6.93 0 0 0 -1.65,4 h 9.53 v -0.24 a 6.16,6.16 0 0 0 -1.34,-3.84 4.07,4.07 0 0 0 -3.19,-1.41 z"
         id="path578" />
      <path
         d="m 1427.57,511.94 h -11.1 V 521 h 12.89 v 2.76 h -16.26 v -25.58 h 16.08 v 2.76 h -12.71 v 8.24 h 11.1 z"
         id="path580" />
      <path
         d="m 1440.33,511.69 4.22,-6.94 h 3.8 l -6.23,9.4 6.42,9.62 h -3.76 l -4.4,-7.12 -4.39,7.12 h -3.78 l 6.42,-9.62 -6.23,-9.4 h 3.77 z"
         id="path582" />
      <path
         d="m 1457.1,500.14 v 4.61 h 3.56 v 2.51 h -3.56 v 11.81 a 2.58,2.58 0 0 0 0.48,1.72 2,2 0 0 0 1.62,0.57 8,8 0 0 0 1.54,-0.21 v 2.62 a 9.53,9.53 0 0 1 -2.49,0.35 4,4 0 0 1 -3.29,-1.32 5.65,5.65 0 0 1 -1.11,-3.74 v -11.8 h -3.46 v -2.51 h 3.46 v -4.61 z"
         id="path584" />
      <path
         d="m 1473.25,524.12 a 8.32,8.32 0 0 1 -6.3,-2.54 9.38,9.38 0 0 1 -2.42,-6.79 v -0.6 a 11.45,11.45 0 0 1 1.08,-5.05 8.46,8.46 0 0 1 3,-3.49 7.66,7.66 0 0 1 4.21,-1.25 7.12,7.12 0 0 1 5.77,2.44 c 1.37,1.63 2.06,4 2.05,7 v 1.35 h -12.88 a 6.75,6.75 0 0 0 1.64,4.54 5.16,5.16 0 0 0 4,1.74 5.62,5.62 0 0 0 2.92,-0.71 7.29,7.29 0 0 0 2.09,-1.86 l 2,1.55 a 8,8 0 0 1 -7.16,3.67 z m -0.41,-17.05 a 4.36,4.36 0 0 0 -3.3,1.43 7,7 0 0 0 -1.66,4 h 9.53 v -0.25 a 6.24,6.24 0 0 0 -1.33,-3.84 4.09,4.09 0 0 0 -3.24,-1.34 z"
         id="path586" />
      <path
         d="m 1494.52,507.67 a 9.51,9.51 0 0 0 -1.6,-0.13 4.29,4.29 0 0 0 -4.34,2.73 v 13.5 h -3.26 v -19 h 3.17 V 507 a 5.08,5.08 0 0 1 4.54,-2.55 3.39,3.39 0 0 1 1.44,0.24 z"
         id="path588" />
      <path
         d="m 1501.48,504.75 0.11,2.39 a 6.89,6.89 0 0 1 5.69,-2.74 q 6,0 6.09,6.8 v 12.57 h -3.26 v -12.59 a 4.35,4.35 0 0 0 -0.94,-3 3.79,3.79 0 0 0 -2.87,-1 4.67,4.67 0 0 0 -2.78,0.84 5.57,5.57 0 0 0 -1.86,2.22 v 13.55 h -3.25 v -19 z"
         id="path590" />
      <path
         d="m 1530.91,523.77 a 6.53,6.53 0 0 1 -0.45,-2 7.24,7.24 0 0 1 -5.42,2.35 6.69,6.69 0 0 1 -4.61,-1.59 5.16,5.16 0 0 1 -1.81,-4 5.43,5.43 0 0 1 2.26,-4.62 10.73,10.73 0 0 1 6.36,-1.64 h 3.16 v -1.5 a 3.68,3.68 0 0 0 -1,-2.71 4,4 0 0 0 -3,-1 4.71,4.71 0 0 0 -2.92,0.88 2.56,2.56 0 0 0 -1.18,2.12 h -3.3 a 4.52,4.52 0 0 1 1,-2.75 7,7 0 0 1 2.74,-2.1 9.41,9.41 0 0 1 3.81,-0.77 7.56,7.56 0 0 1 5.15,1.64 5.94,5.94 0 0 1 1.93,4.53 v 8.75 a 10.77,10.77 0 0 0 0.67,4.17 v 0.28 z m -5.39,-2.48 a 5.69,5.69 0 0 0 2.9,-0.79 4.79,4.79 0 0 0 2,-2.06 v -3.9 h -2.55 q -6,0 -6,3.5 a 3,3 0 0 0 1,2.39 3.92,3.92 0 0 0 2.65,0.86 z"
         id="path592" />
      <path
         d="m 1543.18,523.77 h -3.25 v -27 h 3.25 z"
         id="path594" />
      <path
         d="m 1438.21,557 h 12.13 v 2.76 h -15.53 v -25.58 h 3.4 z"
         id="path596" />
      <path
         d="m 1466.32,559.77 a 6.85,6.85 0 0 1 -0.46,-2 7.27,7.27 0 0 1 -5.41,2.36 6.73,6.73 0 0 1 -4.62,-1.59 5.13,5.13 0 0 1 -1.8,-4 5.38,5.38 0 0 1 2.26,-4.62 10.68,10.68 0 0 1 6.35,-1.64 h 3.17 v -1.5 a 3.68,3.68 0 0 0 -1,-2.71 4.11,4.11 0 0 0 -3,-1 4.66,4.66 0 0 0 -2.91,0.88 2.56,2.56 0 0 0 -1.18,2.12 h -3.27 a 4.46,4.46 0 0 1 1,-2.75 7,7 0 0 1 2.74,-2.1 9.41,9.41 0 0 1 3.81,-0.77 7.56,7.56 0 0 1 5.15,1.64 6,6 0 0 1 1.93,4.53 v 8.75 a 10.59,10.59 0 0 0 0.67,4.17 v 0.28 z m -5.4,-2.48 a 5.69,5.69 0 0 0 2.9,-0.79 4.74,4.74 0 0 0 2,-2.06 v -3.9 h -2.55 q -6,0 -6,3.5 a 3,3 0 0 0 1,2.39 4,4 0 0 0 2.65,0.86 z"
         id="path598" />
      <path
         d="m 1486.13,554.72 a 2.37,2.37 0 0 0 -1,-2 9.55,9.55 0 0 0 -3.46,-1.26 15.91,15.91 0 0 1 -3.92,-1.27 5.54,5.54 0 0 1 -2.15,-1.75 4.27,4.27 0 0 1 -0.69,-2.43 5,5 0 0 1 2,-4 7.83,7.83 0 0 1 5.06,-1.61 8,8 0 0 1 5.25,1.67 5.28,5.28 0 0 1 2,4.27 H 1486 a 2.92,2.92 0 0 0 -1.14,-2.3 4.18,4.18 0 0 0 -2.85,-1 4.44,4.44 0 0 0 -2.78,0.77 2.42,2.42 0 0 0 -1,2 2,2 0 0 0 0.93,1.78 11.19,11.19 0 0 0 3.37,1.14 18.2,18.2 0 0 1 3.94,1.3 5.75,5.75 0 0 1 2.24,1.82 4.44,4.44 0 0 1 0.73,2.6 4.86,4.86 0 0 1 -2,4.08 8.45,8.45 0 0 1 -5.29,1.54 9.49,9.49 0 0 1 -4,-0.81 6.59,6.59 0 0 1 -2.75,-2.26 5.42,5.42 0 0 1 -1,-3.13 h 3.25 a 3.34,3.34 0 0 0 1.31,2.59 5.09,5.09 0 0 0 3.22,1 5.27,5.27 0 0 0 3,-0.75 2.32,2.32 0 0 0 0.95,-1.99 z"
         id="path600" />
      <path
         d="m 1502.41,560.12 a 8.31,8.31 0 0 1 -6.29,-2.54 9.42,9.42 0 0 1 -2.43,-6.79 v -0.6 a 11.34,11.34 0 0 1 1.09,-5.06 8.43,8.43 0 0 1 3,-3.48 7.66,7.66 0 0 1 4.21,-1.25 7.12,7.12 0 0 1 5.76,2.44 c 1.38,1.63 2.06,4 2.06,7 v 1.35 H 1497 a 6.7,6.7 0 0 0 1.64,4.54 5.16,5.16 0 0 0 4,1.74 5.62,5.62 0 0 0 2.92,-0.71 7.29,7.29 0 0 0 2.09,-1.86 l 2,1.55 a 8,8 0 0 1 -7.24,3.67 z m -0.4,-17 a 4.38,4.38 0 0 0 -3.31,1.43 7,7 0 0 0 -1.65,4 h 9.53 v -0.25 a 6.16,6.16 0 0 0 -1.34,-3.84 4.07,4.07 0 0 0 -3.24,-1.39 z"
         id="path602" />
      <path
         d="m 1523.69,543.67 a 9.51,9.51 0 0 0 -1.6,-0.13 4.31,4.31 0 0 0 -4.35,2.73 v 13.5 h -3.25 v -19 h 3.17 V 543 a 5.07,5.07 0 0 1 4.53,-2.55 3.41,3.41 0 0 1 1.45,0.24 z"
         id="path604" />
      <path
         d="m 1433.34,595.77 v -25.6 h 8.37 c 2.77,0 4.85,0.58 6.26,1.73 a 6.23,6.23 0 0 1 2.1,5.1 5.22,5.22 0 0 1 -1,3.17 6.46,6.46 0 0 1 -2.77,2.13 6,6 0 0 1 3.28,2.21 6.35,6.35 0 0 1 1.2,3.88 6.84,6.84 0 0 1 -2.23,5.41 9.22,9.22 0 0 1 -6.31,2 z m 3.37,-14.68 h 5.1 a 5.33,5.33 0 0 0 3.54,-1.11 4.26,4.26 0 0 0 0.17,-6 l -0.07,-0.07 a 6,6 0 0 0 -3.74,-1 h -5 z m 0,2.71 v 9.2 h 5.58 a 5.32,5.32 0 0 0 3.71,-1.22 4.33,4.33 0 0 0 1.37,-3.37 q 0,-4.62 -5,-4.62 z"
         id="path606" />
      <path
         d="m 1464,596.12 a 8.32,8.32 0 0 1 -6.3,-2.54 9.38,9.38 0 0 1 -2.42,-6.79 v -0.6 a 11.46,11.46 0 0 1 1.08,-5.06 8.5,8.5 0 0 1 3,-3.48 7.66,7.66 0 0 1 4.21,-1.25 7.12,7.12 0 0 1 5.77,2.44 c 1.37,1.63 2,4 2,7 v 1.35 h -12.88 a 6.75,6.75 0 0 0 1.64,4.54 5.16,5.16 0 0 0 4,1.74 5.62,5.62 0 0 0 2.92,-0.71 7.29,7.29 0 0 0 2.09,-1.86 l 2,1.55 a 8,8 0 0 1 -7.11,3.67 z m -0.41,-17 a 4.36,4.36 0 0 0 -3.3,1.43 7,7 0 0 0 -1.66,4 h 9.53 v -0.25 a 6.21,6.21 0 0 0 -1.33,-3.84 4.08,4.08 0 0 0 -3.2,-1.39 z"
         id="path608" />
      <path
         d="m 1487.86,595.77 a 6.85,6.85 0 0 1 -0.46,-2 7.27,7.27 0 0 1 -5.41,2.36 6.73,6.73 0 0 1 -4.62,-1.59 5.13,5.13 0 0 1 -1.8,-4 5.38,5.38 0 0 1 2.26,-4.62 10.68,10.68 0 0 1 6.35,-1.64 h 3.17 v -1.5 a 3.68,3.68 0 0 0 -1,-2.71 4.11,4.11 0 0 0 -3,-1 4.71,4.71 0 0 0 -2.92,0.88 2.56,2.56 0 0 0 -1.17,2.12 H 1476 a 4.46,4.46 0 0 1 1,-2.75 6.91,6.91 0 0 1 2.74,-2.1 9.36,9.36 0 0 1 3.8,-0.77 7.59,7.59 0 0 1 5.16,1.64 6,6 0 0 1 1.93,4.53 v 8.75 a 10.59,10.59 0 0 0 0.67,4.17 v 0.28 z m -5.4,-2.48 a 5.69,5.69 0 0 0 2.9,-0.79 4.85,4.85 0 0 0 2,-2.06 v -3.9 h -2.55 q -6,0 -6,3.5 a 3,3 0 0 0 1,2.39 3.92,3.92 0 0 0 2.65,0.86 z"
         id="path610" />
      <path
         d="m 1499.66,576.75 0.08,2.11 a 7,7 0 0 1 5.65,-2.46 q 4,0 5.43,3.06 a 7,7 0 0 1 2.47,-2.22 7.36,7.36 0 0 1 3.59,-0.84 q 6.25,0 6.37,6.62 v 12.75 H 1520 v -12.55 a 4.35,4.35 0 0 0 -0.93,-3.05 4.07,4.07 0 0 0 -3.13,-1 4.29,4.29 0 0 0 -3,1.08 4.39,4.39 0 0 0 -1.39,2.91 v 12.62 h -3.27 v -12.47 q 0,-4.15 -4.06,-4.15 a 4.37,4.37 0 0 0 -4.38,2.72 v 13.89 h -3.25 v -19 z"
         id="path612" />
      <path
         d="m 593.25,554.33 h 12.13 v 2.76 H 589.85 V 531.5 h 3.4 z"
         id="path614" />
      <path
         d="m 621.36,557.09 a 6.85,6.85 0 0 1 -0.46,-2 7.27,7.27 0 0 1 -5.41,2.35 6.73,6.73 0 0 1 -4.62,-1.59 5.12,5.12 0 0 1 -1.8,-4 5.35,5.35 0 0 1 2.26,-4.61 10.55,10.55 0 0 1 6.35,-1.65 h 3.17 v -1.49 a 3.69,3.69 0 0 0 -1,-2.72 4.12,4.12 0 0 0 -3,-1 4.71,4.71 0 0 0 -2.92,0.88 2.58,2.58 0 0 0 -1.17,2.13 h -3.27 a 4.46,4.46 0 0 1 1,-2.75 6.93,6.93 0 0 1 2.74,-2.11 9.41,9.41 0 0 1 3.81,-0.77 7.56,7.56 0 0 1 5.15,1.64 6,6 0 0 1 1.93,4.53 v 8.76 a 10.54,10.54 0 0 0 0.67,4.16 v 0.28 z m -5.4,-2.48 a 5.69,5.69 0 0 0 2.9,-0.79 4.77,4.77 0 0 0 2,-2.05 v -3.91 h -2.56 q -6,0 -6,3.5 a 3,3 0 0 0 1,2.39 3.88,3.88 0 0 0 2.7,0.86 z"
         id="path616" />
      <path
         d="m 641.17,552.05 a 2.4,2.4 0 0 0 -1,-2 9.55,9.55 0 0 0 -3.46,-1.26 16.46,16.46 0 0 1 -3.92,-1.26 5.56,5.56 0 0 1 -2.15,-1.76 4.27,4.27 0 0 1 -0.69,-2.43 5,5 0 0 1 2,-4 7.75,7.75 0 0 1 5.06,-1.62 8,8 0 0 1 5.24,1.67 5.28,5.28 0 0 1 2,4.27 H 641 a 2.92,2.92 0 0 0 -1.14,-2.3 4.25,4.25 0 0 0 -2.85,-1 4.43,4.43 0 0 0 -2.78,0.78 2.42,2.42 0 0 0 -1,2 2,2 0 0 0 0.93,1.77 11.49,11.49 0 0 0 3.37,1.15 17.18,17.18 0 0 1 3.94,1.3 5.67,5.67 0 0 1 2.24,1.82 4.41,4.41 0 0 1 0.73,2.59 4.88,4.88 0 0 1 -2,4.09 8.54,8.54 0 0 1 -5.29,1.53 9.66,9.66 0 0 1 -4,-0.8 6.59,6.59 0 0 1 -2.75,-2.26 5.45,5.45 0 0 1 -1,-3.14 h 3.25 a 3.34,3.34 0 0 0 1.31,2.59 5.09,5.09 0 0 0 3.22,1 5.27,5.27 0 0 0 3,-0.75 2.31,2.31 0 0 0 0.99,-1.98 z"
         id="path618" />
      <path
         d="m 657.45,557.44 a 8.28,8.28 0 0 1 -6.29,-2.54 9.42,9.42 0 0 1 -2.43,-6.79 v -0.6 a 11.49,11.49 0 0 1 1.08,-5 8.5,8.5 0 0 1 3,-3.48 7.59,7.59 0 0 1 4.21,-1.26 7.12,7.12 0 0 1 5.76,2.44 c 1.38,1.63 2.06,4 2.06,7 v 1.35 H 652 a 6.71,6.71 0 0 0 1.64,4.55 5.17,5.17 0 0 0 4,1.73 5.71,5.71 0 0 0 2.92,-0.7 7.33,7.33 0 0 0 2.09,-1.87 l 2,1.55 a 8,8 0 0 1 -7.2,3.62 z m -0.4,-17.05 a 4.34,4.34 0 0 0 -3.31,1.44 6.93,6.93 0 0 0 -1.65,4 h 9.53 v -0.24 a 6.16,6.16 0 0 0 -1.34,-3.84 4.05,4.05 0 0 0 -3.23,-1.36 z"
         id="path620" />
      <path
         d="m 678.73,541 a 10.67,10.67 0 0 0 -1.6,-0.12 4.3,4.3 0 0 0 -4.35,2.72 v 13.5 h -3.25 v -19 h 3.17 v 2.2 a 5.07,5.07 0 0 1 4.53,-2.55 3.27,3.27 0 0 1 1.45,0.25 z"
         id="path622" />
      <path
         d="m 696.31,547.07 v 10 h -3.37 V 531.5 h 9.44 a 9.49,9.49 0 0 1 6.58,2.14 7.29,7.29 0 0 1 2.38,5.68 7.16,7.16 0 0 1 -2.33,5.74 c -1.55,1.34 -3.78,2 -6.67,2 z m 0,-2.76 h 6.07 a 6.06,6.06 0 0 0 4.14,-1.27 4.7,4.7 0 0 0 1.44,-3.69 4.82,4.82 0 0 0 -1.44,-3.66 5.62,5.62 0 0 0 -3.95,-1.43 h -6.26 z"
         id="path624" />
      <path
         d="m 719.29,540.38 a 6.89,6.89 0 0 1 5.62,-2.66 q 6,0 6.09,6.8 v 12.57 h -3.26 v -12.58 a 4.35,4.35 0 0 0 -0.94,-3 3.74,3.74 0 0 0 -2.87,-1 4.68,4.68 0 0 0 -2.78,0.85 5.62,5.62 0 0 0 -1.86,2.21 v 13.55 H 716 v -27 h 3.25 z"
         id="path626" />
      <path
         d="m 735.9,547.41 a 11.23,11.23 0 0 1 1.1,-5 8.17,8.17 0 0 1 3.06,-3.45 8.49,8.49 0 0 1 4.47,-1.21 8,8 0 0 1 6.29,2.69 10.37,10.37 0 0 1 2.4,7.16 v 0.22 a 11.34,11.34 0 0 1 -1.07,5 8,8 0 0 1 -3,3.43 8.45,8.45 0 0 1 -4.54,1.23 8,8 0 0 1 -6.27,-2.69 10.23,10.23 0 0 1 -2.4,-7.11 z m 3.27,0.38 a 8.14,8.14 0 0 0 1.47,5.08 5,5 0 0 0 7,0.85 4.88,4.88 0 0 0 0.85,-0.85 9,9 0 0 0 1.46,-5.44 8.13,8.13 0 0 0 -1.49,-5.07 4.69,4.69 0 0 0 -4,-2 4.65,4.65 0 0 0 -3.88,1.92 8.88,8.88 0 0 0 -1.43,5.51 z"
         id="path628" />
      <path
         d="m 762.61,533.47 v 4.6 h 3.55 v 2.52 h -3.55 v 11.81 a 2.66,2.66 0 0 0 0.47,1.71 2,2 0 0 0 1.62,0.57 8.14,8.14 0 0 0 1.55,-0.21 v 2.62 a 9.15,9.15 0 0 1 -2.5,0.35 4.08,4.08 0 0 1 -3.29,-1.31 5.72,5.72 0 0 1 -1.1,-3.75 v -11.79 h -3.47 v -2.52 h 3.47 v -4.6 z"
         id="path630" />
      <path
         d="m 769.64,547.41 a 11.23,11.23 0 0 1 1.1,-5 8.17,8.17 0 0 1 3.06,-3.41 8.49,8.49 0 0 1 4.47,-1.21 8,8 0 0 1 6.29,2.69 10.37,10.37 0 0 1 2.4,7.16 v 0.22 a 11.34,11.34 0 0 1 -1.07,5 8,8 0 0 1 -3,3.43 8.45,8.45 0 0 1 -4.54,1.23 8,8 0 0 1 -6.27,-2.69 10.23,10.23 0 0 1 -2.4,-7.11 z m 3.27,0.38 a 8.14,8.14 0 0 0 1.47,5.08 5,5 0 0 0 7,0.85 4.88,4.88 0 0 0 0.85,-0.85 9,9 0 0 0 1.46,-5.44 8.13,8.13 0 0 0 -1.49,-5.07 4.71,4.71 0 0 0 -4,-2 4.65,4.65 0 0 0 -3.88,1.92 8.82,8.82 0 0 0 -1.43,5.51 z"
         id="path632" />
      <path
         d="m 795,538.07 0.11,2.39 a 7,7 0 0 1 5.69,-2.74 q 6,0 6.08,6.8 v 12.57 h -3.25 v -12.58 a 4.35,4.35 0 0 0 -0.94,-3 3.74,3.74 0 0 0 -2.87,-1 4.68,4.68 0 0 0 -2.78,0.85 5.62,5.62 0 0 0 -1.86,2.21 v 13.55 h -3.25 v -19 z"
         id="path634" />
      <path
         d="M 619.78,581.79 H 609 v 11.3 h -3.37 V 567.5 h 15.85 v 2.76 H 609 V 579 h 10.74 z"
         id="path636" />
      <path
         d="m 626,569 a 2,2 0 0 1 0.49,-1.34 1.82,1.82 0 0 1 1.43,-0.54 1.84,1.84 0 0 1 1.44,0.54 2,2 0 0 1 0.49,1.34 1.84,1.84 0 0 1 -0.49,1.32 1.87,1.87 0 0 1 -1.44,0.52 1.73,1.73 0 0 1 -1.91,-1.55 A 1.38,1.38 0 0 1 626,569 Z m 3.52,24.06 h -3.25 v -19 h 3.25 z"
         id="path638" />
      <path
         d="m 643.48,593.44 a 8.28,8.28 0 0 1 -6.29,-2.54 9.42,9.42 0 0 1 -2.43,-6.79 v -0.6 a 11.36,11.36 0 0 1 1.09,-5 8.43,8.43 0 0 1 3,-3.48 7.59,7.59 0 0 1 4.21,-1.26 7.11,7.11 0 0 1 5.76,2.45 c 1.38,1.62 2.06,4 2.06,7 v 1.35 H 638 a 6.71,6.71 0 0 0 1.64,4.55 5.17,5.17 0 0 0 4,1.73 5.71,5.71 0 0 0 2.92,-0.7 7.33,7.33 0 0 0 2.09,-1.87 l 2,1.55 a 8,8 0 0 1 -7.17,3.61 z m -0.4,-17.05 a 4.34,4.34 0 0 0 -3.31,1.44 6.93,6.93 0 0 0 -1.65,4 h 9.53 v -0.24 a 6.14,6.14 0 0 0 -1.34,-3.84 4.05,4.05 0 0 0 -3.23,-1.36 z"
         id="path640" />
      <path
         d="m 659.1,593.09 h -3.26 v -27 h 3.26 z"
         id="path642" />
      <path
         d="m 664.41,583.42 a 11.23,11.23 0 0 1 2.07,-7 7.07,7.07 0 0 1 9.92,-1.13 7.28,7.28 0 0 1 0.81,0.76 v -9.92 h 3.25 v 27 h -3 l -0.16,-2 a 6.59,6.59 0 0 1 -5.43,2.39 6.5,6.5 0 0 1 -5.39,-2.7 11.25,11.25 0 0 1 -2.08,-7.07 z m 3.25,0.37 a 8.5,8.5 0 0 0 1.34,5.07 4.31,4.31 0 0 0 3.69,1.82 4.74,4.74 0 0 0 4.52,-2.77 v -8.74 a 4.79,4.79 0 0 0 -4.49,-2.69 4.34,4.34 0 0 0 -3.72,1.85 9.29,9.29 0 0 0 -1.34,5.46 z"
         id="path644" />
      <path
         d="m 696.23,569 a 2,2 0 0 1 0.48,-1.34 2.19,2.19 0 0 1 2.88,0 2,2 0 0 1 0.49,1.34 1.84,1.84 0 0 1 -0.49,1.32 1.92,1.92 0 0 1 -2.71,0.17 1.88,1.88 0 0 1 -0.65,-1.49 z m 3.52,24.06 h -3.25 v -19 h 3.25 z"
         id="path646" />
      <path
         d="m 708.93,574.07 0.1,2.39 a 7,7 0 0 1 5.7,-2.74 q 6,0 6.08,6.8 v 12.57 h -3.25 v -12.58 a 4.4,4.4 0 0 0 -0.94,-3 3.78,3.78 0 0 0 -2.88,-1 4.65,4.65 0 0 0 -2.77,0.85 5.88,5.88 0 0 0 -1.87,2.21 v 13.55 h -3.25 v -19 z"
         id="path648" />
      <path
         d="m 737.69,588.05 a 2.4,2.4 0 0 0 -1,-2 9.49,9.49 0 0 0 -3.46,-1.26 16.92,16.92 0 0 1 -3.92,-1.26 5.55,5.55 0 0 1 -2.14,-1.76 4.2,4.2 0 0 1 -0.7,-2.43 5,5 0 0 1 2,-4 7.72,7.72 0 0 1 5,-1.62 8,8 0 0 1 5.25,1.67 5.28,5.28 0 0 1 2,4.27 h -3.27 a 2.91,2.91 0 0 0 -1.13,-2.3 4.27,4.27 0 0 0 -2.86,-1 4.41,4.41 0 0 0 -2.77,0.78 2.42,2.42 0 0 0 -1,2 2,2 0 0 0 0.93,1.77 11.73,11.73 0 0 0 3.36,1.15 17,17 0 0 1 4,1.3 5.75,5.75 0 0 1 2.24,1.82 4.41,4.41 0 0 1 0.73,2.59 4.88,4.88 0 0 1 -2,4.09 8.54,8.54 0 0 1 -5.29,1.53 9.63,9.63 0 0 1 -4,-0.8 6.59,6.59 0 0 1 -2.75,-2.26 5.43,5.43 0 0 1 -1,-3.14 h 3.25 a 3.37,3.37 0 0 0 1.31,2.59 5.12,5.12 0 0 0 3.23,1 5.19,5.19 0 0 0 3,-0.75 2.27,2.27 0 0 0 0.99,-1.98 z"
         id="path650" />
      <path
         d="m 746.09,569 a 2,2 0 0 1 0.49,-1.34 1.82,1.82 0 0 1 1.43,-0.54 1.84,1.84 0 0 1 1.44,0.54 2,2 0 0 1 0.49,1.34 1.84,1.84 0 0 1 -0.49,1.32 1.87,1.87 0 0 1 -1.44,0.52 1.73,1.73 0 0 1 -1.91,-1.55 1.38,1.38 0 0 1 -0.01,-0.29 z m 3.52,24.06 h -3.25 v -19 h 3.25 z"
         id="path652" />
      <path
         d="m 754.92,583.42 a 11.15,11.15 0 0 1 2.08,-7 7.06,7.06 0 0 1 9.91,-1.13 7.28,7.28 0 0 1 0.81,0.76 v -9.92 H 771 v 27 h -3 l -0.16,-2 a 6.59,6.59 0 0 1 -5.43,2.39 6.5,6.5 0 0 1 -5.39,-2.7 11.37,11.37 0 0 1 -2.08,-7.07 z m 3.25,0.37 a 8.5,8.5 0 0 0 1.34,5.07 4.31,4.31 0 0 0 3.69,1.82 4.74,4.74 0 0 0 4.52,-2.77 v -8.74 a 4.8,4.8 0 0 0 -4.48,-2.69 4.34,4.34 0 0 0 -3.73,1.85 9.29,9.29 0 0 0 -1.34,5.46 z"
         id="path654" />
      <path
         d="m 784.81,593.44 a 8.28,8.28 0 0 1 -6.3,-2.54 9.47,9.47 0 0 1 -2.42,-6.79 v -0.6 a 11.49,11.49 0 0 1 1.08,-5 8.5,8.5 0 0 1 3,-3.48 7.59,7.59 0 0 1 4.21,-1.26 7.13,7.13 0 0 1 5.77,2.45 c 1.37,1.62 2.06,4 2.06,7 v 1.35 h -12.87 a 6.83,6.83 0 0 0 1.64,4.55 5.17,5.17 0 0 0 4,1.73 5.71,5.71 0 0 0 2.92,-0.7 7.18,7.18 0 0 0 2.09,-1.87 l 2,1.55 a 8,8 0 0 1 -7.18,3.61 z m -0.41,-17.05 a 4.32,4.32 0 0 0 -3.3,1.44 6.93,6.93 0 0 0 -1.65,4 H 789 v -0.24 a 6.21,6.21 0 0 0 -1.33,-3.84 4.1,4.1 0 0 0 -3.27,-1.36 z"
         id="path656" />
      <path
         d="m 587.85,605.47 v 4.6 h 3.55 v 2.52 h -3.55 v 11.81 a 2.66,2.66 0 0 0 0.47,1.71 2,2 0 0 0 1.62,0.57 8.14,8.14 0 0 0 1.55,-0.21 v 2.62 a 9.15,9.15 0 0 1 -2.5,0.35 4.08,4.08 0 0 1 -3.29,-1.31 5.72,5.72 0 0 1 -1.1,-3.75 v -11.79 h -3.47 v -2.52 h 3.47 v -4.6 z"
         id="path658" />
      <path
         d="m 599.35,612.38 a 6.89,6.89 0 0 1 5.62,-2.66 q 6,0 6.08,6.8 v 12.57 h -3.25 v -12.58 a 4.35,4.35 0 0 0 -0.94,-3 3.74,3.74 0 0 0 -2.87,-1 4.68,4.68 0 0 0 -2.78,0.85 5.62,5.62 0 0 0 -1.86,2.21 v 13.55 h -3.25 v -27 h 3.25 z"
         id="path660" />
      <path
         d="m 624.72,629.44 a 8.28,8.28 0 0 1 -6.3,-2.54 9.47,9.47 0 0 1 -2.42,-6.79 v -0.6 a 11.49,11.49 0 0 1 1.08,-5 8.5,8.5 0 0 1 3,-3.48 7.59,7.59 0 0 1 4.21,-1.26 7.13,7.13 0 0 1 5.77,2.45 c 1.37,1.62 2,4 2,7 v 1.35 h -12.81 a 6.76,6.76 0 0 0 1.64,4.55 5.17,5.17 0 0 0 4,1.73 5.71,5.71 0 0 0 2.92,-0.7 7.33,7.33 0 0 0 2.09,-1.87 l 2,1.55 a 8,8 0 0 1 -7.18,3.61 z m -0.41,-17.05 a 4.32,4.32 0 0 0 -3.3,1.44 7,7 0 0 0 -1.66,4 h 9.53 v -0.24 a 6.21,6.21 0 0 0 -1.33,-3.84 4.07,4.07 0 0 0 -3.24,-1.36 z"
         id="path662" />
      <path
         d="m 656.5,618.74 h -6 v 10.35 h -3.4 V 603.5 h 8.47 c 2.89,0 5.1,0.66 6.66,2 a 7.09,7.09 0 0 1 2.33,5.73 6.89,6.89 0 0 1 -1.3,4.16 7.73,7.73 0 0 1 -3.59,2.66 l 6,10.86 v 0.21 h -3.62 z m -6,-2.76 h 5.19 a 5.91,5.91 0 0 0 4,-1.3 4.41,4.41 0 0 0 1.48,-3.49 4.67,4.67 0 0 0 -1.41,-3.65 6,6 0 0 0 -4.09,-1.28 h -5.17 z"
         id="path664" />
      <path
         d="m 677.57,629.44 a 8.28,8.28 0 0 1 -6.3,-2.54 9.47,9.47 0 0 1 -2.42,-6.79 v -0.6 a 11.49,11.49 0 0 1 1.08,-5 8.5,8.5 0 0 1 3,-3.48 7.59,7.59 0 0 1 4.21,-1.26 7.13,7.13 0 0 1 5.77,2.45 c 1.37,1.62 2.05,4 2.05,7 v 1.35 H 672.1 a 6.76,6.76 0 0 0 1.64,4.55 5.17,5.17 0 0 0 4,1.73 5.71,5.71 0 0 0 2.92,-0.7 7.33,7.33 0 0 0 2.09,-1.87 l 2,1.55 a 8,8 0 0 1 -7.18,3.61 z m -0.41,-17.05 a 4.32,4.32 0 0 0 -3.3,1.44 6.93,6.93 0 0 0 -1.65,4 h 9.52 v -0.24 a 6.21,6.21 0 0 0 -1.33,-3.84 4.07,4.07 0 0 0 -3.24,-1.36 z"
         id="path666" />
      <path
         d="m 700.72,624.05 a 2.4,2.4 0 0 0 -1,-2 9.53,9.53 0 0 0 -3.47,-1.26 16.92,16.92 0 0 1 -3.92,-1.26 5.55,5.55 0 0 1 -2.14,-1.76 4.27,4.27 0 0 1 -0.69,-2.43 5,5 0 0 1 2,-4 7.77,7.77 0 0 1 5.06,-1.62 8,8 0 0 1 5.24,1.67 5.28,5.28 0 0 1 2,4.27 h -3.27 a 2.92,2.92 0 0 0 -1.14,-2.3 4.25,4.25 0 0 0 -2.85,-1 4.43,4.43 0 0 0 -2.78,0.78 2.42,2.42 0 0 0 -1,2 2,2 0 0 0 0.93,1.77 11.49,11.49 0 0 0 3.37,1.15 17.18,17.18 0 0 1 3.94,1.3 5.67,5.67 0 0 1 2.24,1.82 4.41,4.41 0 0 1 0.73,2.59 4.88,4.88 0 0 1 -2,4.09 8.54,8.54 0 0 1 -5.29,1.53 9.63,9.63 0 0 1 -4,-0.8 6.59,6.59 0 0 1 -2.75,-2.26 5.45,5.45 0 0 1 -1,-3.14 h 3.25 a 3.34,3.34 0 0 0 1.31,2.59 5.09,5.09 0 0 0 3.22,1 5.19,5.19 0 0 0 3,-0.75 2.28,2.28 0 0 0 1.01,-1.98 z"
         id="path668" />
      <path
         d="m 708.25,619.41 a 11.09,11.09 0 0 1 1.1,-5 8.15,8.15 0 0 1 3,-3.45 8.41,8.41 0 0 1 4.48,-1.21 8,8 0 0 1 6.28,2.69 10.37,10.37 0 0 1 2.4,7.16 v 0.22 a 11.33,11.33 0 0 1 -1.06,5 8,8 0 0 1 -3,3.43 8.49,8.49 0 0 1 -4.55,1.23 8,8 0 0 1 -6.26,-2.69 10.23,10.23 0 0 1 -2.4,-7.11 z m 3.27,0.38 a 8.13,8.13 0 0 0 1.46,5.08 5,5 0 0 0 7,0.85 4.88,4.88 0 0 0 0.85,-0.85 9,9 0 0 0 1.46,-5.44 8.13,8.13 0 0 0 -1.49,-5.07 4.93,4.93 0 0 0 -6.91,-0.92 4.72,4.72 0 0 0 -0.92,0.92 8.86,8.86 0 0 0 -1.45,5.43 z"
         id="path670" />
      <path
         d="m 733.62,610.07 0.1,2.39 a 7,7 0 0 1 5.7,-2.74 q 6,0 6.08,6.8 v 12.57 h -3.25 v -12.58 a 4.4,4.4 0 0 0 -0.94,-3 3.78,3.78 0 0 0 -2.88,-1 4.65,4.65 0 0 0 -2.77,0.85 5.88,5.88 0 0 0 -1.87,2.21 v 13.55 h -3.25 v -19 z"
         id="path672" />
      <path
         d="m 763.05,629.09 a 6.85,6.85 0 0 1 -0.46,-2 7.24,7.24 0 0 1 -5.42,2.35 6.69,6.69 0 0 1 -4.61,-1.59 5.12,5.12 0 0 1 -1.8,-4 5.35,5.35 0 0 1 2.26,-4.61 10.55,10.55 0 0 1 6.35,-1.65 h 3.17 v -1.49 a 3.69,3.69 0 0 0 -1,-2.72 4.12,4.12 0 0 0 -3,-1 4.71,4.71 0 0 0 -2.92,0.88 2.58,2.58 0 0 0 -1.17,2.13 h -3.27 a 4.46,4.46 0 0 1 1,-2.75 6.73,6.73 0 0 1 2.74,-2.1 9,9 0 0 1 3.8,-0.78 7.5,7.5 0 0 1 5.15,1.65 5.91,5.91 0 0 1 1.94,4.52 v 8.76 a 10.54,10.54 0 0 0 0.67,4.16 v 0.28 z m -5.4,-2.48 a 5.69,5.69 0 0 0 2.9,-0.79 4.77,4.77 0 0 0 2,-2.05 v -3.91 H 760 q -6,0 -6,3.5 a 3,3 0 0 0 1,2.39 3.92,3.92 0 0 0 2.65,0.86 z"
         id="path674" />
      <path
         d="m 776.2,605.47 v 4.6 h 3.55 v 2.52 h -3.55 v 11.81 a 2.66,2.66 0 0 0 0.47,1.71 2,2 0 0 0 1.62,0.57 8.14,8.14 0 0 0 1.55,-0.21 v 2.62 a 9.15,9.15 0 0 1 -2.5,0.35 4.08,4.08 0 0 1 -3.29,-1.31 5.66,5.66 0 0 1 -1.1,-3.75 v -11.79 h -3.47 v -2.52 H 773 v -4.6 z"
         id="path676" />
      <path
         d="m 783.23,619.41 a 11.23,11.23 0 0 1 1.1,-5 8.17,8.17 0 0 1 3.06,-3.45 8.49,8.49 0 0 1 4.47,-1.21 8,8 0 0 1 6.29,2.69 10.37,10.37 0 0 1 2.4,7.16 v 0.22 a 11.34,11.34 0 0 1 -1.07,5 8,8 0 0 1 -3,3.43 8.45,8.45 0 0 1 -4.54,1.23 8,8 0 0 1 -6.27,-2.69 10.23,10.23 0 0 1 -2.4,-7.11 z m 3.27,0.38 a 8.14,8.14 0 0 0 1.47,5.08 5,5 0 0 0 7,0.85 4.88,4.88 0 0 0 0.85,-0.85 8.89,8.89 0 0 0 1.45,-5.44 8.06,8.06 0 0 0 -1.48,-5.07 4.72,4.72 0 0 0 -3.95,-2 4.65,4.65 0 0 0 -3.88,1.92 8.82,8.82 0 0 0 -1.46,5.51 z"
         id="path678" />
      <path
         d="m 814.72,613 a 10.67,10.67 0 0 0 -1.6,-0.12 4.29,4.29 0 0 0 -4.34,2.72 v 13.5 h -3.26 v -19 h 3.17 v 2.2 a 5.08,5.08 0 0 1 4.54,-2.55 3.23,3.23 0 0 1 1.44,0.25 z"
         id="path680" />
      <path
         d="m 1049.24,586.08 v 10 h -3.38 v -25.57 h 9.44 a 9.49,9.49 0 0 1 6.58,2.14 8.11,8.11 0 0 1 0.06,11.42 c -1.56,1.34 -3.78,2 -6.68,2 z m 0,-2.76 h 6.06 a 6.1,6.1 0 0 0 4.15,-1.28 4.7,4.7 0 0 0 1.44,-3.69 4.82,4.82 0 0 0 -1.44,-3.66 5.69,5.69 0 0 0 -4,-1.42 h -6.25 z"
         id="path682" />
      <path
         d="m 1080.7,594.22 a 6.87,6.87 0 0 1 -5.57,2.23 5.9,5.9 0 0 1 -4.63,-1.77 7.62,7.62 0 0 1 -1.61,-5.22 v -12.38 h 3.25 v 12.29 c 0,2.88 1.18,4.32 3.52,4.32 2.34,0 4.14,-0.92 5,-2.78 v -13.83 h 3.25 v 19 h -3.1 z"
         id="path684" />
      <path
         d="m 1092.77,577.08 0.08,2.11 a 7,7 0 0 1 5.65,-2.46 q 4,0 5.43,3.06 a 7,7 0 0 1 2.47,-2.22 7.36,7.36 0 0 1 3.59,-0.84 q 6.26,0 6.37,6.63 v 12.74 h -3.26 v -12.55 a 4.39,4.39 0 0 0 -0.93,-3 4.11,4.11 0 0 0 -3.13,-1 4.29,4.29 0 0 0 -3,1.08 4.39,4.39 0 0 0 -1.39,2.91 v 12.56 h -3.27 v -12.46 q 0,-4.15 -4.06,-4.15 a 4.37,4.37 0 0 0 -4.38,2.72 v 13.89 h -3.25 v -19 z"
         id="path686" />
      <path
         d="m 1138.23,586.8 a 11.46,11.46 0 0 1 -2,7 6.36,6.36 0 0 1 -5.38,2.65 7,7 0 0 1 -5.45,-2.2 v 9.16 h -3.25 v -26.33 h 3 l 0.16,2.11 a 6.67,6.67 0 0 1 5.52,-2.46 6.5,6.5 0 0 1 5.42,2.58 11.5,11.5 0 0 1 2,7.19 z m -3.26,-0.37 a 8.37,8.37 0 0 0 -1.37,-5.08 4.38,4.38 0 0 0 -3.76,-1.86 4.79,4.79 0 0 0 -4.43,2.62 v 9.09 a 4.78,4.78 0 0 0 4.47,2.6 4.4,4.4 0 0 0 3.71,-1.86 9.15,9.15 0 0 0 1.41,-5.51 z"
         id="path688" />
      <path
         d="m 1033.23,622.08 v 10 h -3.38 v -25.57 h 9.44 a 9.49,9.49 0 0 1 6.59,2.14 7.32,7.32 0 0 1 2.38,5.68 7.19,7.19 0 0 1 -2.33,5.74 c -1.55,1.34 -3.78,2 -6.67,2 z m 0,-2.76 h 6.06 a 6.1,6.1 0 0 0 4.15,-1.28 4.7,4.7 0 0 0 1.44,-3.69 4.82,4.82 0 0 0 -1.44,-3.66 5.69,5.69 0 0 0 -4,-1.42 h -6.26 z"
         id="path690" />
      <path
         d="m 1056.21,615.38 a 6.91,6.91 0 0 1 5.62,-2.65 q 6,0 6.08,6.8 v 12.57 h -3.25 v -12.59 a 4.4,4.4 0 0 0 -0.94,-3 3.81,3.81 0 0 0 -2.87,-1 4.69,4.69 0 0 0 -2.78,0.84 5.57,5.57 0 0 0 -1.86,2.22 V 632.1 H 1053 v -27 h 3.26 z"
         id="path692" />
      <path
         d="m 1072.82,622.41 a 11.23,11.23 0 0 1 1.1,-5 8.17,8.17 0 0 1 3.08,-3.41 8.28,8.28 0 0 1 4.47,-1.21 8,8 0 0 1 6.29,2.69 10.39,10.39 0 0 1 2.39,7.15 v 0.23 a 11.33,11.33 0 0 1 -1.06,5 8.07,8.07 0 0 1 -3,3.44 8.45,8.45 0 0 1 -4.54,1.23 8,8 0 0 1 -6.27,-2.69 10.27,10.27 0 0 1 -2.4,-7.12 z m 3.27,0.39 a 8.14,8.14 0 0 0 1.47,5.08 5,5 0 0 0 7.86,0 8.83,8.83 0 0 0 1.46,-5.44 8.18,8.18 0 0 0 -1.48,-5.07 4.74,4.74 0 0 0 -4,-1.94 4.65,4.65 0 0 0 -3.88,1.92 8.79,8.79 0 0 0 -1.43,5.45 z"
         id="path694" />
      <path
         d="m 1099.52,608.47 v 4.61 h 3.56 v 2.51 h -3.56 v 11.81 a 2.58,2.58 0 0 0 0.48,1.72 2,2 0 0 0 1.62,0.57 8,8 0 0 0 1.54,-0.21 v 2.62 a 9.53,9.53 0 0 1 -2.49,0.35 4,4 0 0 1 -3.29,-1.32 5.65,5.65 0 0 1 -1.11,-3.74 v -11.8 h -3.46 v -2.51 h 3.46 v -4.61 z"
         id="path696" />
      <path
         d="m 1106.56,622.41 a 11.23,11.23 0 0 1 1.1,-5 8.17,8.17 0 0 1 3.06,-3.45 8.28,8.28 0 0 1 4.47,-1.21 8,8 0 0 1 6.28,2.69 10.35,10.35 0 0 1 2.4,7.15 v 0.23 a 11.33,11.33 0 0 1 -1.06,5 8.07,8.07 0 0 1 -3,3.44 8.45,8.45 0 0 1 -4.54,1.23 8,8 0 0 1 -6.27,-2.69 10.27,10.27 0 0 1 -2.4,-7.12 z m 3.27,0.39 a 8.14,8.14 0 0 0 1.47,5.08 5,5 0 0 0 7,0.84 5.56,5.56 0 0 0 0.84,-0.84 8.83,8.83 0 0 0 1.46,-5.44 8.18,8.18 0 0 0 -1.48,-5.07 4.74,4.74 0 0 0 -4,-1.94 4.65,4.65 0 0 0 -3.88,1.92 8.77,8.77 0 0 0 -1.43,5.45 z"
         id="path698" />
      <path
         d="m 1131.93,613.08 0.1,2.39 a 7,7 0 0 1 5.7,-2.74 q 6,0 6.08,6.8 v 12.57 h -3.25 v -12.59 a 4.4,4.4 0 0 0 -0.94,-3 3.81,3.81 0 0 0 -2.87,-1 4.67,4.67 0 0 0 -2.78,0.84 5.75,5.75 0 0 0 -1.87,2.22 v 13.53 h -3.25 v -19 z"
         id="path700" />
      <path
         d="m 1160.69,627.05 a 2.4,2.4 0 0 0 -1,-2 9.53,9.53 0 0 0 -3.47,-1.26 15.91,15.91 0 0 1 -3.92,-1.27 5.52,5.52 0 0 1 -2.14,-1.75 4.2,4.2 0 0 1 -0.7,-2.43 4.89,4.89 0 0 1 2,-4 7.77,7.77 0 0 1 5.06,-1.62 8,8 0 0 1 5.24,1.67 5.28,5.28 0 0 1 2,4.27 h -3.27 a 2.92,2.92 0 0 0 -1.14,-2.3 4.23,4.23 0 0 0 -2.85,-1 4.44,4.44 0 0 0 -2.78,0.77 2.44,2.44 0 0 0 -1,2 2,2 0 0 0 0.93,1.77 11.41,11.41 0 0 0 3.36,1.14 18.16,18.16 0 0 1 4,1.3 5.75,5.75 0 0 1 2.24,1.82 4.44,4.44 0 0 1 0.73,2.6 4.85,4.85 0 0 1 -2,4.08 8.45,8.45 0 0 1 -5.29,1.54 9.49,9.49 0 0 1 -4,-0.81 6.59,6.59 0 0 1 -2.75,-2.26 5.42,5.42 0 0 1 -1,-3.13 h 3.26 a 3.34,3.34 0 0 0 1.31,2.59 5.09,5.09 0 0 0 3.22,1 5.19,5.19 0 0 0 3,-0.75 2.3,2.3 0 0 0 0.96,-1.97 z"
         id="path702" />
      <path
         d="m 863.2,884.73 a 15.88,15.88 0 0 1 -1.26,6.56 9.66,9.66 0 0 1 -3.59,4.28 10.52,10.52 0 0 1 -10.78,0 9.87,9.87 0 0 1 -3.63,-4.23 15,15 0 0 1 -1.32,-6.37 v -1.85 a 15.56,15.56 0 0 1 1.28,-6.52 10.08,10.08 0 0 1 14.42,-4.35 9.6,9.6 0 0 1 3.62,4.3 16,16 0 0 1 1.26,6.57 z m -3.36,-1.66 c 0,-3 -0.61,-5.37 -1.82,-7 a 6.5,6.5 0 0 0 -9.15,-1 6.89,6.89 0 0 0 -1,1 11.34,11.34 0 0 0 -1.89,6.76 v 1.88 a 11.41,11.41 0 0 0 1.86,6.93 6.5,6.5 0 0 0 9.16,1.16 6.34,6.34 0 0 0 1,-1 11.46,11.46 0 0 0 1.84,-6.83 z"
         id="path704" />
      <path
         d="m 884.72,887.4 a 11.33,11.33 0 0 1 -2,7 6.36,6.36 0 0 1 -5.38,2.66 7,7 0 0 1 -5.44,-2.2 V 904 h -3.26 v -26.32 h 3 l 0.16,2.11 a 6.71,6.71 0 0 1 5.52,-2.46 6.47,6.47 0 0 1 5.42,2.58 11.5,11.5 0 0 1 2,7.19 z m -3.25,-0.37 a 8.38,8.38 0 0 0 -1.37,-5 4.45,4.45 0 0 0 -3.77,-1.86 4.75,4.75 0 0 0 -4.42,2.62 v 9.08 a 4.77,4.77 0 0 0 4.46,2.6 4.39,4.39 0 0 0 3.72,-1.85 9.18,9.18 0 0 0 1.38,-5.59 z"
         id="path706" />
      <path
         d="m 894.16,873.07 v 4.61 h 3.55 v 2.51 h -3.55 V 892 a 2.58,2.58 0 0 0 0.48,1.72 2,2 0 0 0 1.61,0.57 8.14,8.14 0 0 0 1.55,-0.21 v 2.62 a 9.53,9.53 0 0 1 -2.49,0.35 4,4 0 0 1 -3.29,-1.32 5.7,5.7 0 0 1 -1.11,-3.74 v -11.8 h -3.46 v -2.51 h 3.46 v -4.61 z"
         id="path708" />
      <path
         d="m 902.43,872.63 a 2,2 0 0 1 0.48,-1.33 1.78,1.78 0 0 1 1.43,-0.55 1.83,1.83 0 0 1 1.45,0.55 2,2 0 0 1 0.49,1.33 1.77,1.77 0 0 1 -1.66,1.86 h -0.28 a 1.74,1.74 0 0 1 -1.91,-1.85 z m 3.51,24.07 h -3.25 v -19 h 3.25 z"
         id="path710" />
      <path
         d="m 919.68,894.39 a 4.7,4.7 0 0 0 3,-1 3.74,3.74 0 0 0 1.44,-2.64 h 3.07 a 5.77,5.77 0 0 1 -1.12,3.11 7.27,7.27 0 0 1 -2.77,2.36 8.44,8.44 0 0 1 -9.84,-1.71 10.38,10.38 0 0 1 -2.3,-7.1 v -0.54 a 11.36,11.36 0 0 1 1,-4.94 7.83,7.83 0 0 1 2.93,-3.36 8.31,8.31 0 0 1 4.51,-1.19 7.64,7.64 0 0 1 5.32,1.91 6.85,6.85 0 0 1 2.25,5 h -3.07 a 4.52,4.52 0 0 0 -1.4,-3 4.35,4.35 0 0 0 -3.1,-1.18 4.57,4.57 0 0 0 -3.84,1.78 8.42,8.42 0 0 0 -1.36,5.16 v 0.62 a 8.23,8.23 0 0 0 1.35,5.06 4.57,4.57 0 0 0 3.93,1.66 z"
         id="path712" />
      <path
         d="m 943.53,896.7 a 6.84,6.84 0 0 1 -0.45,-2 7.25,7.25 0 0 1 -5.42,2.36 6.69,6.69 0 0 1 -4.61,-1.59 5.2,5.2 0 0 1 -1.8,-4 5.38,5.38 0 0 1 2.25,-4.61 10.64,10.64 0 0 1 6.36,-1.64 H 943 v -1.5 a 3.68,3.68 0 0 0 -1,-2.71 4,4 0 0 0 -3,-1 4.76,4.76 0 0 0 -2.92,0.87 2.6,2.6 0 0 0 -1.18,2.12 h -3.27 a 4.52,4.52 0 0 1 1,-2.75 7,7 0 0 1 2.75,-2.1 9,9 0 0 1 3.8,-0.77 7.5,7.5 0 0 1 5.15,1.64 5.91,5.91 0 0 1 1.93,4.53 v 8.75 a 11,11 0 0 0 0.67,4.17 v 0.28 z m -5.39,-2.48 a 5.69,5.69 0 0 0 2.9,-0.79 4.85,4.85 0 0 0 2,-2.06 v -3.9 h -2.55 c -4,0 -6,1.16 -6,3.5 a 3,3 0 0 0 1,2.39 3.92,3.92 0 0 0 2.65,0.86 z"
         id="path714" />
      <path
         d="m 955.81,896.7 h -3.26 v -27 h 3.26 z"
         id="path716" />
      <path
         d="m 991.06,888.58 a 9.44,9.44 0 0 1 -3,6.26 9.86,9.86 0 0 1 -6.71,2.21 9,9 0 0 1 -7.26,-3.25 13.06,13.06 0 0 1 -2.74,-8.7 v -2.47 a 14.56,14.56 0 0 1 1.28,-6.27 9.53,9.53 0 0 1 3.61,-4.16 10.11,10.11 0 0 1 5.41,-1.45 9.22,9.22 0 0 1 6.54,2.28 9.59,9.59 0 0 1 2.87,6.3 h -3.4 a 7.29,7.29 0 0 0 -1.9,-4.44 5.76,5.76 0 0 0 -4.11,-1.38 6.05,6.05 0 0 0 -5.07,2.39 11,11 0 0 0 -1.84,6.81 v 2.48 a 11.35,11.35 0 0 0 1.74,6.64 5.65,5.65 0 0 0 4.87,2.46 6.49,6.49 0 0 0 4.32,-1.28 7,7 0 0 0 2,-4.43 z"
         id="path718" />
      <path
         d="m 1007.79,896.7 a 7.63,7.63 0 0 1 -0.45,-2 7.25,7.25 0 0 1 -5.42,2.36 6.69,6.69 0 0 1 -4.61,-1.59 5.17,5.17 0 0 1 -1.8,-4 5.35,5.35 0 0 1 2.26,-4.61 10.61,10.61 0 0 1 6.35,-1.64 h 3.17 v -1.5 a 3.68,3.68 0 0 0 -1,-2.71 4.12,4.12 0 0 0 -3,-1 4.76,4.76 0 0 0 -2.92,0.87 2.62,2.62 0 0 0 -1.18,2.13 h -3.27 a 4.46,4.46 0 0 1 1,-2.75 6.91,6.91 0 0 1 2.74,-2.1 9,9 0 0 1 3.8,-0.77 7.5,7.5 0 0 1 5.15,1.64 6,6 0 0 1 1.94,4.53 v 8.75 a 10.59,10.59 0 0 0 0.67,4.17 v 0.28 z m -5.39,-2.48 a 5.69,5.69 0 0 0 2.9,-0.79 4.85,4.85 0 0 0 2,-2.06 v -3.9 h -2.55 c -4,0 -6,1.16 -6,3.5 a 3,3 0 0 0 1,2.39 3.92,3.92 0 0 0 2.65,0.86 z"
         id="path720" />
      <path
         d="m 1022.55,892.29 4.71,-14.61 h 3.32 l -6.82,19 h -2.48 l -6.89,-19 h 3.32 z"
         id="path722" />
      <path
         d="m 1034.63,872.63 a 2,2 0 0 1 0.48,-1.33 2.15,2.15 0 0 1 2.87,0 1.92,1.92 0 0 1 0.5,1.33 2,2 0 0 1 -3.37,1.32 1.88,1.88 0 0 1 -0.48,-1.32 z m 3.51,24.07 h -3.25 v -19 h 3.25 z"
         id="path724" />
      <path
         d="m 1048.66,873.07 v 4.61 h 3.55 v 2.51 h -3.55 V 892 a 2.69,2.69 0 0 0 0.47,1.72 2,2 0 0 0 1.62,0.57 8.14,8.14 0 0 0 1.55,-0.21 v 2.62 a 9.55,9.55 0 0 1 -2.5,0.35 4.06,4.06 0 0 1 -3.29,-1.32 5.64,5.64 0 0 1 -1.1,-3.74 v -11.8 h -3.47 v -2.51 h 3.47 v -4.61 z"
         id="path726" />
      <path
         d="m 1063.13,891.93 4.43,-14.25 h 3.44 l -7.65,22 q -1.77,4.76 -5.64,4.75 h -0.62 l -1.21,-0.23 v -2.64 l 0.88,0.07 a 4.35,4.35 0 0 0 2.58,-0.67 4.86,4.86 0 0 0 1.52,-2.44 l 0.72,-1.93 -6.79,-18.81 h 3.55 z"
         id="path728" />
      <path
         d="m 859.49,922.31 a 27.35,27.35 0 0 1 1.06,-7.63 22.2,22.2 0 0 1 3.17,-6.64 13.48,13.48 0 0 1 4.38,-4.22 l 0.67,2.14 a 14,14 0 0 0 -4.21,6 25.83,25.83 0 0 0 -1.8,9.06 v 1.49 a 26.17,26.17 0 0 0 2.48,11.78 14,14 0 0 0 3.55,4.67 l -0.67,2 a 14,14 0 0 1 -4.46,-4.36 24.45,24.45 0 0 1 -4.17,-14.29 z"
         id="path730" />
      <path
         d="m 882.71,922.34 h -6 v 10.36 h -3.39 v -25.6 h 8.47 q 4.32,0 6.65,2 a 7,7 0 0 1 2.33,5.73 6.91,6.91 0 0 1 -1.29,4.17 7.71,7.71 0 0 1 -3.59,2.65 l 6,10.87 v 0.21 h -3.62 z m -6,-2.76 h 5.19 a 5.86,5.86 0 0 0 4,-1.3 4.41,4.41 0 0 0 1.48,-3.49 4.65,4.65 0 0 0 -1.41,-3.64 6,6 0 0 0 -4.09,-1.29 h -5.18 z"
         id="path732" />
      <path
         d="m 903.77,933.05 a 8.35,8.35 0 0 1 -6.29,-2.54 9.41,9.41 0 0 1 -2.42,-6.8 v -0.59 a 11.46,11.46 0 0 1 1.08,-5.06 8.5,8.5 0 0 1 3,-3.48 7.66,7.66 0 0 1 4.21,-1.25 7.12,7.12 0 0 1 5.77,2.44 q 2.05,2.44 2,7 v 1.35 h -12.81 a 6.7,6.7 0 0 0 1.64,4.54 5.17,5.17 0 0 0 4,1.73 5.71,5.71 0 0 0 2.92,-0.7 7.29,7.29 0 0 0 2.09,-1.86 l 2,1.55 a 8,8 0 0 1 -7.19,3.67 z m -0.4,-17 a 4.36,4.36 0 0 0 -3.3,1.43 6.88,6.88 0 0 0 -1.66,4 h 9.53 v -0.25 a 6.16,6.16 0 0 0 -1.34,-3.84 4.07,4.07 0 0 0 -3.23,-1.39 z"
         id="path734" />
      <path
         d="m 926.93,927.65 a 2.4,2.4 0 0 0 -1,-2 9.77,9.77 0 0 0 -3.47,-1.25 16.48,16.48 0 0 1 -3.92,-1.27 5.55,5.55 0 0 1 -2.14,-1.76 4.25,4.25 0 0 1 -0.7,-2.42 4.93,4.93 0 0 1 2,-4 7.83,7.83 0 0 1 5.06,-1.61 7.92,7.92 0 0 1 5.24,1.66 5.28,5.28 0 0 1 2,4.27 h -3.26 a 3,3 0 0 0 -1.14,-2.27 4.25,4.25 0 0 0 -2.85,-1 4.44,4.44 0 0 0 -2.78,0.77 2.42,2.42 0 0 0 -1,2 2,2 0 0 0 0.93,1.78 11.41,11.41 0 0 0 3.36,1.14 17.65,17.65 0 0 1 4,1.3 5.75,5.75 0 0 1 2.24,1.82 4.41,4.41 0 0 1 0.73,2.59 4.88,4.88 0 0 1 -2,4.09 8.45,8.45 0 0 1 -5.29,1.54 9.49,9.49 0 0 1 -4,-0.81 6.59,6.59 0 0 1 -2.75,-2.26 5.43,5.43 0 0 1 -1,-3.14 h 3.26 a 3.35,3.35 0 0 0 1.3,2.6 5.12,5.12 0 0 0 3.23,1 5.26,5.26 0 0 0 3,-0.74 2.3,2.3 0 0 0 0.95,-2.03 z"
         id="path736" />
      <path
         d="m 934.46,923 a 11.36,11.36 0 0 1 1.09,-5 8.08,8.08 0 0 1 7.54,-4.65 8,8 0 0 1 6.28,2.69 10.35,10.35 0 0 1 2.4,7.15 v 0.23 a 11.33,11.33 0 0 1 -1.06,5 8.13,8.13 0 0 1 -3,3.44 8.49,8.49 0 0 1 -4.55,1.23 8,8 0 0 1 -6.27,-2.69 10.36,10.36 0 0 1 -2.39,-7.12 z m 3.27,0.39 a 8.13,8.13 0 0 0 1.46,5.08 5,5 0 0 0 7,0.85 4.88,4.88 0 0 0 0.85,-0.85 9,9 0 0 0 1.46,-5.44 8.13,8.13 0 0 0 -1.5,-5.03 4.94,4.94 0 0 0 -6.93,-0.9 4.79,4.79 0 0 0 -0.9,0.9 8.9,8.9 0 0 0 -1.47,5.44 z"
         id="path738" />
      <path
         d="m 959.82,913.68 0.11,2.39 a 6.89,6.89 0 0 1 5.69,-2.74 q 6,0 6.09,6.8 v 12.57 h -3.25 v -12.59 a 4.41,4.41 0 0 0 -1,-3 3.74,3.74 0 0 0 -2.87,-1 4.76,4.76 0 0 0 -2.78,0.84 5.76,5.76 0 0 0 -1.86,2.21 v 13.54 h -3.25 v -19 z"
         id="path740" />
      <path
         d="m 989.25,932.7 a 6.84,6.84 0 0 1 -0.45,-2 7.25,7.25 0 0 1 -5.42,2.36 6.69,6.69 0 0 1 -4.61,-1.59 5.17,5.17 0 0 1 -1.8,-4 5.35,5.35 0 0 1 2.26,-4.61 10.61,10.61 0 0 1 6.35,-1.64 h 3.16 v -1.5 a 3.68,3.68 0 0 0 -1,-2.71 4,4 0 0 0 -3,-1 4.76,4.76 0 0 0 -2.92,0.87 2.62,2.62 0 0 0 -1.18,2.13 h -3.27 a 4.52,4.52 0 0 1 1,-2.75 7,7 0 0 1 2.75,-2.1 9,9 0 0 1 3.8,-0.77 7.5,7.5 0 0 1 5.15,1.64 6,6 0 0 1 1.93,4.47 v 8.75 a 11,11 0 0 0 0.66,4.17 v 0.28 z m -5.39,-2.48 a 5.69,5.69 0 0 0 2.9,-0.79 4.85,4.85 0 0 0 2,-2.06 v -3.9 h -2.56 c -4,0 -6,1.16 -6,3.5 a 3,3 0 0 0 1,2.39 3.94,3.94 0 0 0 2.66,0.86 z"
         id="path742" />
      <path
         d="m 1002.41,909.07 v 4.61 h 3.59 v 2.51 h -3.55 V 928 a 2.63,2.63 0 0 0 0.47,1.72 2,2 0 0 0 1.62,0.57 8,8 0 0 0 1.54,-0.21 v 2.62 a 9.53,9.53 0 0 1 -2.49,0.35 4,4 0 0 1 -3.29,-1.32 5.7,5.7 0 0 1 -1.11,-3.74 v -11.8 h -3.46 v -2.51 h 3.46 v -4.61 z"
         id="path744" />
      <path
         d="m 1009.44,923 a 11.36,11.36 0 0 1 1.1,-5 8.15,8.15 0 0 1 3.06,-3.44 8.31,8.31 0 0 1 4.47,-1.21 8,8 0 0 1 6.29,2.69 10.34,10.34 0 0 1 2.39,7.15 v 0.23 a 11.33,11.33 0 0 1 -1.06,5 8.07,8.07 0 0 1 -3,3.44 8.45,8.45 0 0 1 -4.54,1.23 8,8 0 0 1 -6.27,-2.69 10.27,10.27 0 0 1 -2.4,-7.12 z m 3.27,0.39 a 8.14,8.14 0 0 0 1.47,5.08 5,5 0 0 0 7.86,0 8.83,8.83 0 0 0 1.46,-5.44 8.18,8.18 0 0 0 -1.48,-5.07 4.94,4.94 0 0 0 -7.83,0 8.79,8.79 0 0 0 -1.48,5.5 z"
         id="path746" />
      <path
         d="m 1040.93,916.6 a 9.51,9.51 0 0 0 -1.6,-0.13 4.31,4.31 0 0 0 -4.35,2.73 v 13.5 h -3.25 v -19 h 3.17 v 2.2 a 5.07,5.07 0 0 1 4.53,-2.55 3.41,3.41 0 0 1 1.45,0.24 z"
         id="path748" />
      <path
         d="m 1052.32,922.48 a 26.94,26.94 0 0 1 -1,7.52 22.07,22.07 0 0 1 -3.14,6.63 13.91,13.91 0 0 1 -4.44,4.33 l -0.69,-2 a 14,14 0 0 0 4.35,-6.44 27.84,27.84 0 0 0 1.68,-9.69 v -0.57 a 28.81,28.81 0 0 0 -0.77,-6.86 23.59,23.59 0 0 0 -2.16,-5.69 13.25,13.25 0 0 0 -3.1,-3.92 l 0.69,-2 a 13.72,13.72 0 0 1 4.42,4.29 22,22 0 0 1 3.14,6.62 27.62,27.62 0 0 1 1.02,7.78 z"
         id="path750" />
    </g>
  </g>
  <metadata
     id="metadata1028">
    <rdf:RDF>
      <cc:Work
         rdf:about="">
        <dc:title>05Tavola disegno 1</dc:title>
      </cc:Work>
    </rdf:RDF>
  </metadata>
</svg>
